<?xml version="1.0" encoding="UTF-8"?>
<svg id="Layer_1" xmlns="http://www.w3.org/2000/svg" version="1.1" viewBox="0 0 80.16 78.55">
  <!-- Generator: Adobe Illustrator 29.0.1, SVG Export Plug-In . SVG Version: 2.1.0 Build 192)  -->
  <defs>
    <style>
      .st0 {
        fill: #1f2020;
      }

      .st1 {
        fill: #474747;
      }

      .st2 {
        fill: #8f8f8f;
      }

      .st3 {
        fill: #1b1b1b;
      }

      .st4 {
        fill: #0a0a0a;
      }

      .st5 {
        fill: #676868;
      }

      .st6 {
        fill: #1c1c1c;
      }

      .st7 {
        fill: #e1e2e1;
      }

      .st8 {
        fill: #7c7b7b;
      }

      .st9 {
        fill: #1e1e1e;
      }

      .st10 {
        fill: #3e3e3e;
      }

      .st11 {
        fill: #757575;
      }

      .st12 {
        fill: #0d0d0d;
      }

      .st13 {
        fill: #141414;
      }

      .st14 {
        fill: #1d1d1d;
      }

      .st15 {
        fill: #212121;
      }

      .st16 {
        fill: #3f3f3f;
      }

      .st17 {
        fill: #3d3d3d;
      }

      .st18 {
        fill: #535454;
      }

      .st19 {
        fill: #191918;
      }

      .st20 {
        fill: #121212;
      }

      .st21 {
        fill: #151515;
      }

      .st22 {
        fill: #e3b79f;
      }

      .st23 {
        fill: #181818;
      }

      .st24 {
        fill: #7e7e7e;
      }

      .st25 {
        fill: #fefefe;
      }

      .st26 {
        fill: #2a2a2a;
      }

      .st27 {
        fill: #818181;
      }

      .st28 {
        fill: #0c0c0c;
      }

      .st29 {
        fill: #202020;
      }

      .st30 {
        fill: #131313;
      }

      .st31 {
        fill: #494949;
      }

      .st32 {
        fill: #4b4b4b;
      }

      .st33 {
        fill: #404040;
      }

      .st34 {
        fill: #535353;
      }

      .st35 {
        fill: #1a1a1a;
      }

      .st36 {
        fill: #2e2e2e;
      }

      .st37 {
        fill: #4c4c4c;
      }

      .st38 {
        fill: #2b2c2b;
      }
    </style>
  </defs>
  <g>
    <path class="st26" d="M9.68,54.48c-.04-3.52-.21-7.04-.1-10.55.13-4.17.09-8.36.69-12.52.4-.61.67-1.2-.16-1.7.22-.57.11-1.24.56-1.74.73-.53,1.09-1.8,2.42-1.14.41.32.52.77.47,1.23-.68,6.36-.46,12.74-.72,19.11,0,.11-.06.22-.11.32-.09.14-.18.32-.33.36-1.7.5-.99.99,0,1.47.91,1.36.65,2.8.32,4.25-.09.15-.22.28-.38.38-.76.14-1.66-.17-2.22.65-.17.02-.31-.02-.44-.13Z"/>
    <path class="st3" d="M26.3,10.13c2.23-1.11,4.65-.31,6.97-.63,3.72-.51,7.48-.28,11.2,0,2.12.16,4.31-.25,6.36.55-.32.7-1.21.81-1.6,1.45-.15.1-.3.19-.45.28-2.68.89-5.37-.02-8.05.05-4.57.11-9.12.55-13.7.5-.63,0-1.32.18-1.79-.45-.66-1.16.13-1.49,1.05-1.74Z"/>
    <path class="st12" d="M58.17,10.47c4.54.29,7.92,2.21,9.6,6.49.42.87.81,1.75.43,2.73-.56.81-1.23.69-1.93.21-.84-1.41-1.49-2.9-2.56-4.2-.85-1.04-1.73-1.84-3.06-2.08-1.44-.26-2.8-.83-4.26-1-.67-.08-1.27-.28-1.42-1.04.5-1.89,1.97-1.16,3.19-1.1Z"/>
    <path class="st23" d="M38.29,68.95c-4.74.08-9.38-1.09-14.12-1.06-.47-.39-.93-.79-.71-1.49,1.26-1.49,3.18-1.53,4.63-1.11,2.37.69,4.69.83,7.09.75.7-.02,1.4.07,2.09.18.57.16.92.69,1.52.8.67.11,1.1.5.93,1.18-.17.7-.66,1.04-1.45.74Z"/>
    <path class="st38" d="M70.5,31.8c.01,3.31.03,6.63.04,9.94-.32.38-.62.77-.68,1.28-.08.71-.45,1.1-1.2,1.1-.79-.17-.98-.77-1-1.42-.15-3.92-.37-7.84.11-11.75.02-.17.13-.31.23-.45,1.84-1.23,1.91-1.19,2.51,1.31Z"/>
    <path class="st29" d="M12.83,26.96c-.66.46-1.24,1.07-2.16,1.02-.06-.33-.12-.65-.17-.98-.31-1.14,1.22-1.95.61-3.15.17-2.46,1.14-4.72,1.82-7.05.09-.31.3-.48.6-.56.72-.36,1.43-1,2.16-.02.33,1.87-.83,3.47-1.03,5.27-.15,1.34-.62,2.65-.7,4.01-.04.73-.22,1.36-1.13,1.46Z"/>
    <path class="st17" d="M38.29,68.95c.44-.18.95-.39.86-.93-.11-.63-.65-.17-.99-.26-.44-.12-.84-.38-1.26-.57-.09-.81.5-1.05,1.1-1,2.07.17,4.12-.26,6.18-.07.6.06,1.18.15,1.54.7.49,1.02,1.06,1.7,2.06.42,1.09-1.08,3.45-1.18,4.86-.2.26.6.69,1.19.23,1.88-1.3.43-2.66.3-3.95.17-3.54-.34-7.08-.01-10.62-.12Z"/>
    <path class="st19" d="M69.22,56.61c-.08,1.46-.14,2.92-.24,4.38-.11,1.62-.53,3.1-2.22,3.87-1.1.42-1.64-.17-2.02-1.05.25-2.7,1.3-5.22,2.05-7.8.06-.2.37-.27.59-.34.98-.37,1.77-.39,1.82.94Z"/>
    <path class="st37" d="M69.22,56.61c-.44-.8-1.11-.58-1.78-.4-.76-.16-1.17-.71-1.05-1.36.45-2.54-.15-5.24,1.15-7.66.76-.65,1.59-1.05,2.63-.62.24,3.39-.7,6.68-.94,10.03Z"/>
    <path class="st33" d="M70.5,31.8c-.45-.06-.71-.16-.7-.74.03-1.03-.54-.75-1.07-.34-.56-.26-.88-.64-1.06-1.26-.83-2.94-.67-6.04-1.61-8.96-.15-.46.11-.9.62-1.11.32.25.64.47,1.09.35.9-.32,1.04.35,1.28.92.38.93.38,1.96.84,2.86.16.71.68,1.41.06,2.14-1.22.5-.17,1.29-.26,1.93.04.75.25,1.44.61,2.1.43.67.36,1.38.21,2.11Z"/>
    <path class="st5" d="M18.45,66.92c-3.18-.86-5.97-2.18-6.97-5.6.47-.43.61-.83.23-1.47-.74-1.25-.57-1.45,1.04-1.68,1.23.52,1.49,1.72,1.85,2.75.66,1.85,1.84,3.11,3.73,3.75.65.22,1.15.55,1.18,1.29-.06.63-.58.78-1.07.96Z"/>
    <path class="st29" d="M52.86,68.9c-.76-.36-.86-.99-.71-1.7.18-.79.77-1.05,1.51-1.17,1.6-.27,3.21-.41,4.83-.24,1,.4,1.94.84,1.19,2.15-2.19.89-4.56.61-6.83.97Z"/>
    <path class="st13" d="M12.46,58.58c-.46.09-.89.26-.39.73.4.38.69.77.71,1.29.04,1.02-.41,1.28-1.31.72-.72-2.25-1.78-4.42-1.8-6.84.11,0,.22,0,.33,0,.56-.29,1.05-.77,1.77-.68.1,0,.2,0,.3,0,1.13,1.12,1.33,3.7.39,4.79Z"/>
    <path class="st33" d="M26.3,10.13c-.39.37-.95.66-.71,1.35-.17.43-.48.64-.97.56-.88-.51-1.44.13-2.05.56-1.24.3-2.35.89-3.5,1.4-.57.25-1.11.61-1.8.41-.65-.16-1.07-.47-.89-1.21,2.86-2.39,6.16-3.42,9.92-3.07Z"/>
    <path class="st34" d="M59.69,67.93c-.19-.62-.5-1.13-1.18-1.36,1.12-1.64,2.95-1.96,4.7-2.42.26-.06.49-.18.66-.42.38-.39.81-.61,1.36-.35.2.79.71,1.29,1.53,1.48-1.12,1.38-2.45,2.45-4.32,2.72-.21-.11-.3-.33-.47-.48-.18.29.08.52.11.78-.79.6-1.59.5-2.39.04Z"/>
    <path class="st28" d="M18.45,66.92c-.41-.93.18-.9.83-.82,1.55-1.09,3.26-.9,4.55.48.12.44.24.87.36,1.31-2.03.35-3.82-.63-5.73-.97Z"/>
    <path class="st37" d="M68.66,43.87c.63-.71.46-2.08,1.88-2.13-.2,1.5.34,3.04-.28,4.52-.57.08-1.17.08-1.62.54-.38.39-.73.23-1.05-.11-.25-1.16-.87-2.45,1.07-2.82Z"/>
    <path class="st8" d="M69.88,23.52c-.7-.41-.62-1.15-.77-1.78-.19-.85-.46-1.61-1.35-2,0-.93,0-1.86,0-2.78.71.21,1,.78,1.13,1.4.36,1.71.66,3.44.98,5.16Z"/>
    <path class="st27" d="M16.39,13.2c.24.38.6.57,1.03.67.13,1.47-.45,2.14-2.12,2.45-.57-.38-1.2.29-1.77-.08.61-1.32,1.74-2.18,2.86-3.04Z"/>
    <path class="st3" d="M58.17,10.47c-1,.22-2.22-.11-2.85,1.06-.55.67-1.18.67-1.87.24-.51-.61-.57-1.27-.24-1.97,1.71-.18,3.34.17,4.95.68Z"/>
    <path class="st23" d="M69.18,27.61c-.47-.38-.77-.82-.62-1.46.09-.41-.22-.99.34-1.2.57-.21.72.42,1.04.7.53.71.18,1.57.39,2.33-.57.4-.9.14-1.15-.37Z"/>
    <path class="st6" d="M62.08,67.89c-.55-.15-1.37-.11-1.49-.69-.14-.71.83-.78,1.25-1.19.65-.64,1.09.18,1.88.61-.87.02-1.25.34-1.28.96-.12.1-.24.21-.36.31Z"/>
    <path class="st15" d="M68.13,46.92c.52-.57-.03-1.69.67-1.94.87-.31.59,1.22,1.46,1.27-.01.11-.04.22-.1.32-.68.24-1.22.87-2.05.66-.07-.07-.09-.14-.06-.21.03-.07.06-.1.08-.1Z"/>
    <path class="st3" d="M51.42,9.93c.32-.3.69-.34,1.09-.18.3.67,1.22,1.17.59,2.09-2.04.8-3.35.61-4.23-.6.04-.05.09-.1.13-.16.49-1,1.96-.09,2.42-1.16Z"/>
    <path class="st29" d="M10.11,29.71c.91-.22,1.64.17,1.66.99.02.77-1.04.35-1.5.71-.05-.57-.11-1.13-.16-1.7Z"/>
    <path class="st11" d="M11.1,23.84c.89.2,1.86.38.42,1.28-.71.45-.64,1.27-1.03,1.87-.19-1.12.38-2.11.61-3.15Z"/>
    <path class="st38" d="M69.18,27.61c.38.12.77.25,1.15.37.49.58.13,1.14-.04,1.7-1.48-.13-.96-1.28-1.11-2.08Z"/>
    <path class="st12" d="M51.42,9.93c-.38,1.22-1.45,1.08-2.42,1.16.14-1.13,1.1-.9,1.83-1.04.19-.04.39-.08.58-.12Z"/>
    <path class="st12" d="M53.35,11.21c-.62-.3-1.87-.27-.83-1.46.24.01.47.03.71.04.72.33.59.86.34,1.41-.07,0-.14,0-.21,0Z"/>
    <path class="st22" d="M53.35,11.21c.07.04.14.03.21,0,.55.33,1.17.25,1.77.32,1.92.42,3.84.85,5.77,1.27,1.55.34,2.56,1.13,3.48,2.51.89,1.32,1.89,2.48,2.11,4.09,1.18,3.69,1.2,7.58,2.05,11.33-.57,4.38-.33,8.77-.07,13.15-.81.92-.53,2.01-.52,3.06-.05.1-.05.21-.02.31-.21,1.81-.42,3.62-.65,5.43-.15,1.18-.28,2.36-.03,3.54-.42,2.48-.79,4.98-2.21,7.17-.32.25-.64.5-.96.76.03.55-.33.66-.79.64-1.66.6-3.16,1.6-4.97,1.79-2.14,0-4.27.05-6.35.62-1.3.41-2.68-.27-3.97.27-1.06.78-1.98.5-2.83-.36-2.82-.39-5.64-.03-8.45.08-1.91-.74-3.92.16-5.86-.35-.44-.12-1.03.1-1.38-.11-1.94-1.14-3.9-.28-5.85-.14-1.51-.17-3-.6-4.55-.48-.38-.91-1.37-.45-1.98-.82-1.31-.8-2.67-1.46-3.19-3.14-.38-1.22-.78-2.51-1.64-3.55-.12-1.6-.91-3.14-.39-4.79-.13-1.49.3-3.02-.3-4.48-.33-.64-.44-1.25.29-1.72-.07-6.89-.14-13.78.76-20.64.59-3.6.92-7.25,2.47-10.64.39-1.08,1.64-1.45,2.12-2.45,1.66-.63,3.05-1.88,4.94-1.96.74-.69,1.68-.36,2.53-.47.22.33.47.04.7.04,3.54.2,7.1-.06,10.59-.32,3.08-.23,6.05-.13,9.07.25,1.2.15,2.38-.67,3.61-.16,1.49.23,2.99.41,4.47-.04Z"/>
    <path class="st21" d="M12.07,47.59c-.04.58.16,1.2-.29,1.72-.4.36.1,1.05-.66,1.39-.5-.92-1.55-1.66-.82-2.92.47-.8,1.13-.6,1.77-.19Z"/>
    <path class="st35" d="M11.78,53.79c-.39.71-.6,1.86-1.77.68.13-.92.26-1.84.45-3.17.56,1.06.94,1.77,1.31,2.48Z"/>
    <path class="st14" d="M45.36,67.11c.96-.01,1.92,0,2.83.36.2.31.63.64.13.98-1.07.73-2.82-.08-2.96-1.34Z"/>
    <path class="st3" d="M24.89,11.44c-.76.6-1.65.52-2.53.47.65-1.14,1.52-1.17,2.53-.47Z"/>
    <g>
      <path class="st15" d="M65.84,34.38c.03-.07.05-.13.08-.2-.03.05-.07.1-.07.15,0,.02,0,.03,0,.05Z"/>
      <path class="st15" d="M20.8,20.59c.26-.29.54-.57.83-.83-.21.05-.43.1-.64.14-.04.25-.1.48-.19.7Z"/>
      <path class="st15" d="M19.57,58.21c.62.07.89.39.84.93.24-.13.49-.2.74-.21-.46-.47-.88-.98-1.26-1.52-.02.17-.03.34-.06.51-.07.11-.16.2-.26.29Z"/>
      <path class="st15" d="M19.6,22.14c.1-.16.22-.3.33-.46-.14.1-.29.19-.45.27.04.06.08.12.13.18Z"/>
      <path class="st15" d="M64.27,64.13c-.26.21-.53.43-.79.64.09.5.16,1.02.72,1.24.25.1.52-.04.46-.3-.12-.53.82-1.32-.39-1.59Z"/>
      <path class="st15" d="M16.37,49.32c.06-.21.14-.43.19-.64.13-.52.41-1.06.97-1.02.05,0,.07.02.11.02v-6.91c-1.02-.79.02-2.04-.26-3-.19-.66-.33-1.35.26-1.53v-6.41s-.09-.02-.14-.03c-.44-.34-.97-.4-1.51-.43-.55.71.02,1.43,0,2.15-.26,5.94.08,11.87.06,17.81.11,0,.21,0,.32,0h0Z"/>
      <path class="st15" d="M62.77,22.72c-.62.51-.1,1.24.22,1.85.27.52,1.23.99.27,1.63.18.85.29,1.73.29,2.63v6.45c.17.03.33.07.39.17.89,1.33,1.21.31,1.59-.35.13-.22.22-.47.31-.72,0-.02,0-.03,0-.05,0-.05.05-.1.07-.15-.09-1.24-.42-2.52-.22-3.71.44-2.65-.17-5.13-.79-7.65-.69-.62-1.57-.57-2.14-.1Z"/>
      <path class="st15" d="M65.56,39.01c-.84-.22-1.52-.08-2.01.47v7.58c.19.07.37.14.56.2h0c.13-.86.82-.74,1.43-.75h0c.03-.85.18-1.72.07-2.56-.22-1.65.57-3.3-.05-4.94Z"/>
      <path class="st15" d="M17.62,29.04s.01.01.02.02v-.22c0-1.93.45-3.75,1.23-5.37-1.02-1.1-1.73-.09-2.53.38-.86,1.79-.47,3.66-.35,5.52.45-.57.99-.65,1.63-.32Z"/>
      <path class="st15" d="M17.64,29.82v-.77s-.01-.01-.02-.02c-.63-.32-1.18-.24-1.63.32.54.02,1.07.08,1.51.43.05.02.09.02.14.03Z"/>
      <path class="st15" d="M57.03,17.11c.83.4,1.72.72,2.21,1.57-.09.22-.25.38-.44.46,1.08.82,2.02,1.82,2.77,2.98.05-.11.09-.23.16-.34.66.33.94.04,1.04-.59.1-.6.22-1.19.33-1.78-1.7-1.7-3.51-3.23-5.98-3.77-.82.44-1.27.88-.09,1.46Z"/>
      <path class="st15" d="M63.38,52.26c-.2,1.27-.59,2.47-1.14,3.58-.07.59-.22,1.16-.53,1.72,0-.25,0-.49-.02-.74-.25.4-.51.79-.8,1.15.04.15.1.29.2.43.04.03.08.06.12.09.04-.08.11-.16.19-.24,1.03-.35,1.69.04,2.07.99.9-1.96,1.3-4.02,1.36-6.15-.79,0-1.18-.36-1.46-.83Z"/>
      <path class="st15" d="M35.9,16.85c.12-.65,1.16-.78,1.03-1.58-2.72.23-5.43.46-8.15.69.15.3.31.6.46.9h6.66Z"/>
      <path class="st15" d="M46.9,15.9c.16.73-.62.66-1,.95h6.22c.06,0,.12,0,.18,0-.06-.19-.11-.39-.17-.58-.43.15-.6-.2-.87-.38-1.9-1.26-4.05-1.03-6.18-.97.74.09,1.61.03,1.82.97Z"/>
      <path class="st15" d="M64.1,47.72c-.21.03-.39,0-.56-.06v2.66c0,.24-.02.48-.03.71.61.56.77,1.47,1.33,2.06.55-1.46.36-2.99.39-4.49-.28-.34-.56-.68-.84-1.02-.09.05-.17.1-.28.13Z"/>
      <path class="st15" d="M64.1,47.72c.1-.03.19-.09.28-.13-.09-.11-.18-.22-.27-.33h0c-.19-.07-.37-.14-.56-.2v.6c.17.06.35.1.56.06Z"/>
      <path class="st15" d="M63.38,52.26c.28.47.67.83,1.46.83-.56-.6-.72-1.51-1.33-2.06-.02.42-.07.83-.13,1.23Z"/>
      <path class="st15" d="M19.14,58.29s0,0,0,0c.06-.03.11-.06.17-.09.1,0,.18.01.27.02.1-.09.19-.18.26-.29.03-.17.04-.34.06-.51-1.4-1.99-2.25-4.44-2.25-7.1v-.25c-.52.38-1,.52-1.23-.55-.14-.04-.26-.1-.36-.2,0,1.05-.02,2.1.39,3.1.81,2,2.56,3.59,2.7,5.87,0,0,0,0,0,0Z"/>
      <path class="st15" d="M16.37,49.32h0c-.11,0-.21,0-.32,0,.1.1.22.16.36.2-.01-.06-.03-.13-.04-.2Z"/>
      <path class="st15" d="M52.88,16.89c1.7.12,3.3.62,4.72,1.44-.37-.4-.77-.78-1.35-.97-.4-.13-.54-.56-.49-.99.11-.84.91-.47,1.36-.72-.27-.11-.57-.35-.81-.3-1.4.28-3.19-1.08-4.17.92.43.1.65.32.74.61Z"/>
      <path class="st15" d="M55.76,16.37c-.06.43.08.86.49.99.58.19.98.56,1.35.97.42.24.82.52,1.21.82.19-.08.35-.24.44-.46-.49-.85-1.39-1.17-2.21-1.57-1.18-.57-.73-1.02.09-1.46-.45.25-1.25-.13-1.36.72Z"/>
      <path class="st15" d="M52.88,16.89c-.1-.29-.32-.51-.74-.61.06.19.11.39.17.58.19,0,.38.02.57.03Z"/>
      <path class="st15" d="M21.01,19.05c.03.3.02.58-.02.85.22-.04.43-.09.64-.14,1.27-1.15,2.78-2,4.43-2.48.32-.18.65-.34.58-.75-.07-.38-.7-.18-1.06-.28-1.34.32-2.67.66-4.01.96-.67.15-1.13,1.1-2,.51-.24,1.18.49,1.37,1.44,1.34Z"/>
      <path class="st15" d="M42.32,16.37c.07.16.11.32.09.48h2.97c-.2-.62-.34-1.25-.3-1.92-.94.03-1.89.06-2.83.09-.29.46-.36.92.07,1.35Z"/>
      <path class="st15" d="M45.9,16.85c.38-.29,1.16-.22,1-.95-.21-.94-1.08-.88-1.82-.97-.04.66.1,1.3.3,1.92h.52Z"/>
      <path class="st15" d="M64.71,36.59c-.49.18-.86.06-1.17-.17v2.13c.66-.45,1.22-.29,2.01.46.12-1.61.24-3.22.36-4.82-.03.07-.05.13-.08.2-.03.91-.16,1.86-1.13,2.2Z"/>
      <path class="st15" d="M64.71,36.59c.97-.35,1.1-1.3,1.13-2.2-.09.25-.18.49-.31.72-.39.66-.7,1.69-1.59.35-.06-.1-.22-.14-.39-.17v1.13c.31.23.67.35,1.17.17Z"/>
      <path class="st15" d="M63.54,38.54v.93c.49-.55,1.17-.68,2.01-.47-.79-.75-1.35-.92-2.01-.46Z"/>
      <path class="st15" d="M36.76,16.85h5.25s-.08-.08-.12-.11c-.57-.71-.59-1.3.36-1.71-1.76.44-3.57-.26-5.33.24.72.73.27,1.16-.16,1.58Z"/>
      <path class="st15" d="M35.9,16.85h.87c.43-.43.88-.85.16-1.58.13.8-.91.93-1.03,1.58Z"/>
      <path class="st15" d="M41.89,16.73s.08.08.12.11h.4c.02-.15-.01-.32-.09-.48-.43-.43-.36-.88-.07-1.35-.95.41-.93,1.01-.36,1.71Z"/>
      <path class="st15" d="M24.47,61.58c.04-.09.09-.16.15-.22-1.3-.58-2.47-1.41-3.47-2.43-.25.02-.5.08-.74.21-.01.13-.04.27-.09.43.25.73,1.21,1.48-.05,2.17,1.75-.14,3.43.05,4.91,1.06-.1-.49-.97-.67-.71-1.23Z"/>
      <path class="st15" d="M19.14,22.94c.15-.27.3-.54.47-.8-.04-.06-.09-.12-.13-.18-.11.06-.22.11-.34.16-1.59-.15-1.02-1.25-.87-2.04.13-.69.73-1.27.61-2.05-2.28,1.35-2.22,3.66-2.53,5.82,1.06-1.72,1.37-1.86,2.79-.9Z"/>
      <path class="st15" d="M18.87,23.47c.09-.18.17-.35.26-.52-1.42-.96-1.73-.82-2.79.9.79-.47,1.51-1.48,2.53-.38Z"/>
      <path class="st15" d="M18.13,57.09c-.05-.43.26-.99-.19-1.26-1.35-.82-1.17-2.21-1.5-3.42-.33,1.07.05,2.08.31,3.09,1.78.87.59,2.04.34,3.11,0,.27-.02.55.26.72.63-.21,1.27-.41,1.7-.95-.75.01-.83-.68-.91-1.3Z"/>
      <path class="st15" d="M17.94,55.83c.45.27.14.83.19,1.26.07.62.16,1.31.91,1.3.03-.04.07-.06.1-.11,0,0,0,0,0,0-.14-2.29-1.89-3.88-2.7-5.87.34,1.2.15,2.6,1.5,3.42Z"/>
      <path class="st15" d="M26.35,61.95c.01.37-.1.73-.43,1.06,1.6-.11,3.02,1.03,4.66.65-.58-.39-1.18-.76-1.4-1.36h-.1c-.94,0-1.84-.13-2.72-.36Z"/>
      <path class="st15" d="M62.27,22.23c-.16.03-.32.06-.52.1-.03,0-.05-.02-.08-.03.09.15.18.3.26.45.07-.18.18-.35.34-.52Z"/>
      <path class="st15" d="M63.29,21.69c.57-.04,1.13.34,1.62,1.14-.07-1.4-.86-2.44-1.81-3.4.3,1.22.4,1.87.19,2.27Z"/>
      <path class="st15" d="M63.29,21.69c-.15.28-.48.43-1.01.55-.16.17-.27.34-.34.52.6,1.06,1.05,2.22,1.32,3.45.96-.64,0-1.11-.27-1.63-.32-.6-.84-1.34-.22-1.85.57-.47,1.46-.52,2.14.1-.49-.8-1.05-1.18-1.62-1.14Z"/>
      <path class="st15" d="M61.73,21.79c-.07.11-.11.22-.16.34.04.06.07.12.1.17.03,0,.05.02.08.03.19-.03.36-.06.52-.1.02-.02.03-.04.04-.05.32-.31.65-.47.97-.49.21-.39.11-1.05-.19-2.27-.11.59-.23,1.18-.33,1.78-.1.63-.38.91-1.04.59Z"/>
      <path class="st15" d="M63.29,21.69c-.32.02-.65.18-.97.49-.02.02-.03.04-.04.05.54-.11.86-.26,1.01-.55Z"/>
      <path class="st15" d="M20.13,59.33c.09-.08.18-.14.28-.19.05-.54-.22-.85-.84-.93-.04.04-.06.08-.1.11-.13.03-.23.05-.34.06-.06,1.22-.21,1.28-1.79.95.83.96,1.58,2.03,2.92,2.41-.11-.8-.86-1.56-.14-2.41Z"/>
      <path class="st15" d="M19.14,58.28s0,0,0,0c0,.04,0,.07,0,.1.1,0,.21-.02.34-.06.04-.03.06-.08.1-.11-.08,0-.17-.02-.27-.02-.05.03-.11.06-.17.09Z"/>
      <path class="st15" d="M20.32,59.57c.05-.16.08-.3.09-.43-.09.05-.19.11-.28.19-.72.85.03,1.61.14,2.41,1.26-.7.31-1.44.05-2.17Z"/>
      <path class="st15" d="M19.13,58.39s-.06,0-.09,0c-.43.54-1.06.74-1.7.95,1.58.32,1.73.26,1.79-.95Z"/>
      <path class="st15" d="M19.04,58.39s.06,0,.09,0c0-.04,0-.06,0-.1-.03.04-.07.07-.1.11Z"/>
      <path class="st15" d="M20.99,19.9c-.94-.2-1.46-.33-1.69-.56-.03.15-.07.29-.13.41-.43.9-.15,1.55.3,2.21.16-.08.31-.17.45-.27.27-.38.56-.75.87-1.09.09-.22.16-.45.19-.7,0,0,0,0,0,0Z"/>
      <path class="st15" d="M19.57,17.72c-.23.1-.47.2-.7.31.18.15.29.34.36.53.08-.23.19-.49.34-.83Z"/>
      <path class="st15" d="M19.3,19.34c.24.23.75.36,1.69.56,0,0,0,0,0,0,.04-.27.05-.55.02-.85-.95.04-1.68-.16-1.44-1.34-.16.34-.27.61-.34.83.1.26.11.54.07.79Z"/>
      <path class="st15" d="M18.26,20.07c-.15.8-.72,1.89.87,2.04.12-.04.23-.1.34-.16-.45-.66-.73-1.31-.3-2.21.06-.12.1-.26.13-.41-.18-.18-.19-.42-.07-.79-.07-.19-.18-.37-.36-.53.12.78-.48,1.36-.61,2.05Z"/>
      <path class="st15" d="M19.23,18.55c-.12.37-.11.61.07.79.04-.25.03-.53-.07-.79Z"/>
      <path class="st15" d="M27.13,16.5c.09.21.09.37.04.52.47-.08.96-.14,1.45-.16-.03-.29.05-.6.16-.92-.99.86-2.19-.47-3.19.3.56-.14,1.27-.39,1.55.26Z"/>
      <path class="st15" d="M29.06,16.85h.18c-.15-.3-.31-.6-.46-.9-.12.32-.19.63-.16.92.15,0,.3-.02.45-.02Z"/>
      <path class="st15" d="M26.64,16.53c.07.41-.26.57-.58.75.36-.1.73-.19,1.1-.26.05-.15.05-.32-.04-.52-.28-.65-.98-.4-1.55-.26.36.1.99-.1,1.06.28Z"/>
      <path class="st15" d="M25.64,62.2c-.18.18-.34.38-.46.6.19.27.46.25.74.2-.28-.29-.33-.56-.28-.81Z"/>
      <path class="st15" d="M25.8,61.8c-.4-.13-.79-.27-1.18-.44-.06.06-.11.13-.15.22-.26.55.6.73.71,1.23.12-.23.28-.42.46-.6.03-.14.09-.27.16-.41Z"/>
      <path class="st15" d="M25.98,61.85c-.11.12-.23.24-.35.36-.05.25,0,.51.28.81.33-.33.44-.69.43-1.06-.12-.03-.24-.06-.36-.1Z"/>
      <path class="st15" d="M25.64,62.2c.11-.12.23-.24.35-.36-.06-.02-.12-.03-.18-.05-.08.13-.13.27-.16.41Z"/>
      <path class="st15" d="M61.16,58.84s.08-.02.12-.02c.67.09,1.39.08,1.78.78.14-.12.27-.24.41-.36-.76-.22-1.61-.24-2.27-.75-.06.11-.07.23-.05.35Z"/>
      <path class="st15" d="M61.4,58.26c-.09.08-.15.16-.19.24.66.51,1.5.52,2.27.75-.38-.95-1.04-1.33-2.07-.99Z"/>
      <path class="st15" d="M61.28,58.82s-.08.02-.12.02c.02.14.08.28.18.42.52.36,1.11.41,1.72.34-.39-.7-1.11-.69-1.78-.78Z"/>
      <path class="st15" d="M64.72,47.36c.45.19.59.63.51,1.24.46-.65.34-1.38.31-2.09-.26.29-.51.61-.82.86Z"/>
      <path class="st15" d="M64.1,47.25c.25,0,.45.04.61.11.3-.25.55-.56.82-.86h0c-.61,0-1.29-.12-1.43.75Z"/>
      <path class="st15" d="M64.72,47.36c-.1.08-.22.16-.34.22.28.34.56.68.84,1.02.08-.61-.06-1.05-.51-1.24Z"/>
      <path class="st15" d="M64.72,47.36c-.16-.07-.36-.11-.61-.11.09.11.18.22.27.33.12-.06.23-.14.34-.22Z"/>
      <path class="st15" d="M16.75,55.5c.04.96,0,1.94.27,2.88-.15-.95.8-2.02-.27-2.88Z"/>
      <path class="st15" d="M16.75,55.5c1.07.86.12,1.92.27,2.88.02.08.03.16.06.24.25-1.07,1.45-2.24-.34-3.11Z"/>
      <path class="st15" d="M17.38,37.77c.28.96-.76,2.21.26,3v-4.54c-.6.19-.45.88-.26,1.53Z"/>
      <path class="st15" d="M17.64,47.68s-.07-.02-.11-.02c-.56-.04-.84.49-.97,1.02-.05.22-.13.43-.19.64.45-.06.85.15,1.27.27v-1.9Z"/>
      <path class="st15" d="M16.45,49.53s-.03-.01-.05-.02c.23,1.07.71.93,1.23.55v-.35c-.36-.2-.72-.43-1.19-.19Z"/>
      <path class="st15" d="M17.64,49.72v-.14c-.42-.12-.82-.32-1.27-.27.01.07.03.13.04.2.02,0,.03.01.05.02.47-.24.82-.02,1.19.19Z"/>
      <g>
        <path class="st15" d="M48.06,62.98c.81.69,1.82.26,2.63.25.56-.01.82-.42.78-.92h-17.19c-.13.15-.23.35-.28.65.82.36,2.09-.01,2.56,1.12,3.33.57,6.62.01,9.91-.32.11-1.06.45-1.73,1.58-.77Z"/>
        <path class="st15" d="M52.03,62.86c-.75,1.33-2.22.98-3.41.78-.77-.13-1.44-.46-2.14.11,2.66.54,5.33.2,7.98.04,2.12-.13,4.33-.29,5.82-2.14.55-.65-.21-1.3,0-1.96.01-.13.05-.23.09-.33-.05-.05-.11-.1-.16-.15-.12-.04-.24-.08-.37-.09-2.02,1.95-4.7,3.16-7.64,3.18,0,.17-.05.35-.17.56Z"/>
        <path class="st15" d="M48.62,63.64c1.19.19,2.65.55,3.41-.78.12-.2.16-.39.17-.56-.03,0-.05,0-.08,0h-.64c.04.5-.22.9-.78.92-.81.02-1.82.44-2.63-.25-1.13-.95-1.47-.29-1.58.77.69-.57,1.37-.23,2.14-.11Z"/>
        <path class="st15" d="M33.41,63.01c-.08-.26-.05-.5.05-.71h-4.4c-.19,0-.38-.03-.57-.04-.13.84.39,1.06,2.08,1.4,1.97.48,4.02,0,6,.41-.69-.34-1.41-.62-2.18-.6-.46.02-.82.03-.98-.46Z"/>
        <path class="st15" d="M34.01,62.95c.05-.3.15-.5.28-.65h-.82c-.1.21-.13.45-.05.71.16.5.52.48.98.46.77-.03,1.49.25,2.18.6-.48-1.13-1.75-.76-2.56-1.12Z"/>
        <path class="st15" d="M60.29,61.64c1.62.21,2.32-.76,2.78-2.05-.61.07-1.2.03-1.72-.34-.1-.14-.16-.28-.18-.42-.38.05-.66.21-.79.52.81.73,1.27,1.48-.08,2.29Z"/>
        <path class="st15" d="M60.29,61.64c1.35-.81.89-1.55.08-2.29-.04.1-.07.2-.09.33-.2.65.56,1.3,0,1.96Z"/>
      </g>
    </g>
  </g>
  <path class="st6" d="M36.16,25.16c-.35-.61.38-.57.55-.86,1.39-2.29,3.63-3.3,6.14-3.73.79-.14,1.73.38,2.45.15,1.13-.36,2.03.09,2.99.38.87.27,1.42.72,1.43,1.84.01,1.14.04,2.26-.08,3.39-.14.35-.38.53-.77.44-.32-.18-.53-.48-.83-.69-.34-.38-.42-.81-.28-1.3.08-.29.07-.59.06-.9-.04-1.38-.24-1.52-1.64-1.71-2.26-.31-4.28.3-6.22,1.39-.92.52-1.42,1.39-2.02,2.19-.3.4-.56.85-1.16.84-.98-.14-.5-.93-.65-1.44Z"/>
  <path class="st0" d="M34.63,41.38c-.42.06-.85.19-1.27.18-1.33-.04-1.92-.62-1.89-2.09.02-1.38-.1-2.74-.18-4.11-.08-1.23.22-1.51,1.49-1.48.83.02,1.63-.29,2.47-.11.49-.2.79-.05.87.48-.14.89-.85.92-1.52.99-1.43.15-1.42.14-1.32,1.57.05.7-.02,1.4.05,2.1.04.43.16.79.6.95.38.2.74.45,1.13.65.23.12.36.31.28.57-.11.36-.35.46-.7.29Z"/>
  <path class="st35" d="M41.67,60.12c-1.85.41-3.74.32-5.61.3-.87-.01-1.56-.57-1.58-1.5-.03-1.36.08-2.72.13-4.08.23-.36.47-.7.97-.69.65.07.88.47.89,1.09.02.76-.04,1.53-.06,2.29-.03,1.08.16,1.34,1.32,1.32,1.46-.03,2.91-.06,4.37-.11.26.19.69.29.64.68-.07.61-.8.33-1.08.69Z"/>
  <path class="st0" d="M44.53,46.79c-.13,2.63-.26,5.26-.39,7.89-.7.58-.83.55-1.81-.42-.31-1.45-.12-2.9-.04-4.35.04-.62.1-1.25.17-1.88.12-.53.59-.83.82-1.3.42-.82.71-.77,1.25.05Z"/>
  <path class="st30" d="M46.48,29.15c-.23.12-.48.35-.7.33-1.33-.12-1.4.71-1.33,1.67-.35.58-.16,1.18-.02,1.75.09.36.11.71.18,1.07.01.07.03.13.04.2.09.64,0,1.19-.76,1.35-.64,0-.99-.29-.93-.96.69-.85-.19-1.64-.11-2.47.03-.27-.19-.55-.22-.84-.29-.83.03-1.62.13-2.43.07-.56.57-.76,1.04-.96.8.06,1.6.28,2.41.1.33-.07.56.09.7.4.11.4-.12.62-.43.8Z"/>
  <path class="st10" d="M36.16,25.16c.57.2.11,1.03.74,1.19.33.14.46.41.35.73-.63,1.78-.56,3.67-.91,5.5-.39.4-.81.46-1.28.16-.4-2.27-.2-4.48.57-6.64.13-.35.34-.64.54-.93Z"/>
  <path class="st3" d="M48.95,40.77c.24.95-.29,1.28-1.11,1.48-1.16.29-2.33.09-3.48.19-.42.69-.96.32-1.48.16-.44-.34-.51-.78-.25-1.23.27-.48.75-.68,1.27-.55.56.14,1.12.06,1.67.1.75.06,1.36-.14,1.8-.77.94-.47,1.07-.42,1.57.61Z"/>
  <path class="st14" d="M41.67,60.12c.09-.09.19-.17.28-.26.14-.15.52-.12.42-.43-.08-.23-.39-.16-.6-.21.07-1.16.44-2.29.48-3.46.18-.58.57-.81,1.17-.8.65.01.49.57.67.89.17,1.18-.37,2.28-.36,3.45,0,.29-.28.63-.78.61-.42-.02-.85.13-1.27.2Z"/>
  <path class="st16" d="M43.1,42.39c.42.02.84.04,1.26.05.06,1.45.12,2.9.17,4.35-.47-.33-.86-.46-1.02.31-.08.38-.28.71-.62.93-.8-.53-.42-1.23-.3-1.9.04-.05.09-.1.14-.13.97-.59.97-.7.06-1.35-.23-.42-.21-.9-.28-1.36-.08-.44.12-.78.59-.9Z"/>
  <path class="st18" d="M34.63,47.02c.07-1.2.14-2.4.21-3.6.62-1.11.83-1.11,1.63-.06-.05,1.59.01,3.18-.43,4.74-1.1.47-1.07-.55-1.41-1.08Z"/>
  <path class="st26" d="M35.67,54.44c-.35.14-.7.27-1.06.41-.29-1.21,0-2.41,0-3.61.35-.26.35-.96,1.02-.83.91.72.93,3.55.03,4.03Z"/>
  <path class="st36" d="M49.29,34.37c.31,1.42.51,2.84-.21,4.21-.26.32-.55.3-.86.08-.42-1.1-.4-2.22-.17-3.36.3-.46.73-.74,1.23-.94Z"/>
  <path class="st2" d="M36.01,43.41c-.4-1.08-.78.12-1.17,0-.11-.67.61-1.44-.22-2.04.11-.16.42-.09.42-.35,0-.26-.24-.28-.42-.33-.34-.1-.68-.18-1.02-.27.45-1.13,1.35-.46,1.96-.35,1.06.19,1.57,2.49.81,3.3-.1.11-.23.11-.36.04Z"/>
  <path class="st20" d="M46.48,29.15c.06-.28.13-.56.19-.85-.07-.2-.03-.37.11-.52.35-.27.8-.13,1.17-.3.23-.02.43-.17.67-.15.09.02.18.06.25.12.18.32.44.58.63.88,0,.72-.45.97-1.07.96-.65-.01-1.3-.1-1.94-.15Z"/>
  <path class="st31" d="M43.83,35.2c.56-.12.33-.86.82-1.03,1-.3,2.02-.28,3.04-.19.08.62-.78.58-.8,1.14-.61.52-1.35.66-2.11.69-.42.02-.9.02-.94-.6Z"/>
  <path class="st16" d="M48.29,38.39c.26.06.53.13.79.19.28.75-.03,1.46-.13,2.19-.44-.03-.79-1-1.31-.12-.75-.5-.76-1.12-.05-2.21.23-.13.46-.19.71-.04Z"/>
  <path class="st14" d="M46.66,34.8c.02-.68.65-.59,1.03-.83.7-.55,1.08.23,1.6.39.02.66-.47.82-.96.97-.19,0-.37.04-.56.08-.44-.09-1.02.09-1.11-.62Z"/>
  <path class="st26" d="M34.54,50.21c.14-.66.13-1.32.1-1.98.49-.37.95-.09,1.42.05.26.77.52,1.54-.23,2.2-.45.01-.91.05-1.29-.27Z"/>
  <path class="st32" d="M44.08,55.85c-.55-.82-.72-.82-1.41,0-.81-.83-.75-1.42.17-1.84.21.67.69.79,1.3.66.11.4.08.79-.06,1.17Z"/>
  <path class="st24" d="M35.05,32.74c.3-.19.58-.46.96-.2.77.57.73,1.12-.13,1.64-.11-.31-.4-.34-.65-.43.19-.38-.23-.66-.18-1.02Z"/>
  <path class="st15" d="M35.8,48.22c-.38.04-.76.71-1.15,0,0-.4,0-.81-.01-1.21.41.32.87.57,1.16,1.02.06.04.08.08.06.12-.02.04-.03.06-.05.06Z"/>
  <path class="st4" d="M48.9,26.54c.25-.07.5-.13.75-.2-.02.27.38.51.06.8-.26.33-.48.79-1.03.39h0c-.53-.46-.57-.81.21-.99Z"/>
  <path class="st1" d="M48.69,27.53l1.03-.39c-.02.41.1.84-.22,1.19-.58.04-.85-.22-.81-.81Z"/>
  <path class="st35" d="M34.54,50.21c.41-.17.76-.02,1.09.22.04.04.05.09.04.13,0,.05-.02.07-.03.07-.38.12-.55.62-1.02.6-.03-.34-.05-.68-.08-1.02Z"/>
  <path class="st31" d="M44.6,33.97c-.16-.61-.34-1.22-.47-1.83-.08-.37-.04-.74.32-.98.05.94.1,1.88.16,2.82Z"/>
  <path class="st25" d="M35.64,50.63c0-.07,0-.13-.01-.2.45-.71.06-1.48.17-2.21.03-.06.03-.12,0-.19-.05-1.55.08-3.09.22-4.63.05-.25.09-.51.15-.76.41-1.93-.59-2.38-2.56-2.22-.61.08-.77-.2-.79-.8-.04-1.4-.05-2.81-.31-4.2-.14-.76.43-.68.87-.67.89.02,1.79.17,2.51-.56.21-.53.38-1.07.13-1.64.07-1.9-.04-3.83.84-5.61.08-.16.03-.38.05-.58.64-.45.88-1.22,1.3-1.82,1.06-1.51,2.58-2.02,4.19-2.59,1.81-.63,3.57-.36,5.36-.07.49.08.69.27.62.88-.13,1.04-.07,2.11-.09,3.17.31.7.12,1.37-.16,2.02-.39.34-.78.22-1.18.01-1.01.21-2.04.25-3.07.36-.96.45-.55,1.43-.83,2.14-.07.19.02.45.04.68.3.94-.1,1.98.42,2.91.09.16-.13.36-.27.5-.07.46.25.57.6.66,1.01.34,1.93.04,2.83-.4.4.06.81.12,1.21.18.16.07.28.18.3.36.13,1.1,0,2.17-.28,3.23-.26.66-.56,1.33-.25,2.06-.23.45-.56.85-1.09.78-.87-.12-1.75.24-2.62-.09-.32-.12-.76-.06-.97.2-.18.22-.22.62.13.85-.21.74-.01,1.48-.03,2.22.07.06.12.13.16.22-.02.39.2.81-.14,1.16-.06.07-.11.14-.17.21,0,.61-.01,1.22-.02,1.83-.07,1.61-.13,3.22-.22,4.83-.02.41-.06.8.17,1.17-.42.58-.19,1.22-.17,1.84.17.92-.29,1.79-.18,2.71.06.5-.4.52-.73.65-1.74.06-3.49.11-5.23.2-.63.03-.74-.29-.72-.78.05-1.21.08-2.43.15-3.64.01-.27-.05-.45-.3-.56.06-.12.17-.24.17-.36-.05-1.15-.13-2.3-.2-3.45Z"/>
  <path class="st1" d="M48.12,27.95c-.04-.68.02-1.35.16-2.02.28.13.53.29.63.61-.34.27-.3.63-.21,1-.19.14-.38.28-.58.41Z"/>
  <path class="st31" d="M43.23,34.55c-.05-1.13-.32-2.26-.14-3.4.45,0,.41.25.36.6-.1.65-.31,1.28.35,1.89.39.36.04.86-.57.91Z"/>
  <path class="st7" d="M43.87,28.32c1.01-.25,2-.59,3.07-.36-.09.11-.18.23-.27.34-.93-.2-1.86.4-2.8.02Z"/>
  <path class="st9" d="M42.91,46.2c-.03-.06-.03-.11,0-.17.3-.38.27-.79.14-1.22,0-.07,0-.13.02-.2.56-.24,1,.02,1.02.53.04.7-.53.98-1.18,1.06Z"/>
  <path class="st35" d="M34.89,52.8c.41.52.47.84.34,1.33-.49-.36-.44-.71-.34-1.33Z"/>
  <path class="st5" d="M47.89,38.58c-.08-.73-.01-1.44.17-2.16.12-.47.09-.99-.19-1.44.27-.04.38.13.46.36.09.51.34,1.02-.05,1.52-.11.14-.16.35.02.44.72.38.26.73,0,1.09-.13.06-.27.13-.4.19Z"/>
  <path class="st16" d="M43.05,44.81c1.35.57.02.83-.14,1.22.11-.4-.21-.85.14-1.22Z"/>
</svg>