<?xml version="1.0" encoding="UTF-8"?>
<svg id="Layer_1" xmlns="http://www.w3.org/2000/svg" version="1.1" viewBox="0 0 80.16 78.55">
  <!-- Generator: Adobe Illustrator 29.0.1, SVG Export Plug-In . SVG Version: 2.1.0 Build 192)  -->
  <defs>
    <style>
      .st0 {
        fill: #0f0f0f;
      }

      .st1 {
        fill: none;
      }

      .st2 {
        fill: #1f2020;
      }

      .st3 {
        fill: #070707;
      }

      .st4 {
        fill: #2d2e2d;
      }

      .st5 {
        fill: #1b1b1b;
      }

      .st6 {
        fill: #595959;
      }

      .st7 {
        fill: #5e5f5f;
      }

      .st8 {
        fill: #737374;
      }

      .st9 {
        fill: #676868;
      }

      .st10 {
        fill: #1c1c1c;
      }

      .st11 {
        fill: #353635;
      }

      .st12 {
        fill: #171717;
      }

      .st13 {
        fill: #a5a5a5;
      }

      .st14 {
        fill: #7c7b7b;
      }

      .st15 {
        fill: #606060;
      }

      .st16 {
        fill: #757575;
      }

      .st17 {
        fill: #333232;
      }

      .st18 {
        fill: #4e4e4e;
      }

      .st19 {
        fill: #636363;
      }

      .st20 {
        fill: #797979;
      }

      .st21 {
        fill: #0d0d0d;
      }

      .st22 {
        fill: #141414;
      }

      .st23 {
        fill: #464646;
      }

      .st24 {
        fill: #1d1d1d;
      }

      .st25 {
        fill: #212121;
      }

      .st26 {
        fill: #3f3f3f;
      }

      .st27 {
        fill: #3d3d3d;
      }

      .st28 {
        fill: #262525;
      }

      .st29 {
        fill: #d7d7d7;
      }

      .st30 {
        fill: #282828;
      }

      .st31 {
        fill: #191918;
      }

      .st32 {
        fill: #121212;
      }

      .st33 {
        fill: #272727;
      }

      .st34 {
        fill: #646464;
      }

      .st35 {
        fill: #151515;
      }

      .st36 {
        fill: #e3b79f;
      }

      .st37 {
        fill: #181818;
      }

      .st38 {
        fill: #fefefe;
      }

      .st39 {
        fill: #4a4a4a;
      }

      .st40 {
        fill: #2a2a2a;
      }

      .st41 {
        fill: #818181;
      }

      .st42 {
        fill: #222;
      }

      .st43 {
        fill: #0c0c0c;
      }

      .st44 {
        fill: #838383;
      }

      .st45 {
        fill: #e2e2e2;
      }

      .st46 {
        fill: #202020;
      }

      .st47 {
        fill: #434343;
      }

      .st48 {
        fill: #2d2d2c;
      }

      .st49 {
        fill: #404040;
      }

      .st50 {
        fill: #535353;
      }

      .st51 {
        fill: #1a1a1a;
      }

      .st52 {
        fill: #2e2e2e;
      }

      .st53 {
        fill: #4c4c4c;
      }

      .st54 {
        fill: #343434;
      }

      .st55 {
        fill: #161616;
      }

      .st56 {
        fill: #2b2c2b;
      }

      .st57 {
        fill: #090909;
      }

      .st58 {
        fill: #4d4d4d;
      }
    </style>
  </defs>
  <g>
    <path class="st40" d="M8.55,52.61c-.04-3.52-.21-7.04-.1-10.55.13-4.17.09-8.36.69-12.52.4-.61.67-1.2-.16-1.7.22-.57.11-1.24.56-1.74.73-.53,1.09-1.8,2.42-1.14.41.32.52.77.47,1.23-.68,6.36-.46,12.74-.72,19.11,0,.11-.06.22-.11.32-.09.14-.18.32-.33.36-1.7.5-.99.99,0,1.47.91,1.36.65,2.8.32,4.25-.09.15-.22.28-.38.38-.76.14-1.66-.17-2.22.65-.17.02-.31-.02-.44-.13Z"/>
    <path class="st5" d="M25.17,8.26c2.23-1.11,4.65-.31,6.97-.63,3.72-.51,7.48-.28,11.2,0,2.12.16,4.31-.25,6.36.55-.32.7-1.21.81-1.6,1.45-.15.1-.3.19-.45.28-2.68.89-5.37-.02-8.05.05-4.57.11-9.12.55-13.7.5-.63,0-1.32.18-1.79-.45-.66-1.16.13-1.49,1.05-1.74Z"/>
    <path class="st21" d="M57.04,8.6c4.54.29,7.92,2.21,9.6,6.49.42.87.81,1.75.43,2.73-.56.81-1.23.69-1.93.21-.84-1.41-1.49-2.9-2.56-4.2-.85-1.04-1.73-1.84-3.06-2.08-1.44-.26-2.8-.83-4.26-1-.67-.08-1.27-.28-1.42-1.04.5-1.89,1.97-1.16,3.19-1.1Z"/>
    <path class="st37" d="M37.16,67.08c-4.74.08-9.38-1.09-14.12-1.06-.47-.39-.93-.79-.71-1.49,1.26-1.49,3.18-1.53,4.63-1.11,2.37.69,4.69.83,7.09.75.7-.02,1.4.07,2.09.18.57.16.92.69,1.52.8.67.11,1.1.5.93,1.18-.17.7-.66,1.04-1.45.74Z"/>
    <path class="st56" d="M69.36,29.93c.01,3.31.03,6.63.04,9.94-.32.38-.62.77-.68,1.28-.08.71-.45,1.1-1.2,1.1-.79-.17-.98-.77-1-1.42-.15-3.92-.37-7.84.11-11.75.02-.17.13-.31.23-.45,1.84-1.23,1.91-1.19,2.51,1.31Z"/>
    <path class="st46" d="M11.69,25.09c-.66.46-1.24,1.07-2.16,1.02-.06-.33-.12-.65-.17-.98-.31-1.14,1.22-1.95.61-3.15.17-2.46,1.14-4.72,1.82-7.05.09-.31.3-.48.6-.56.72-.36,1.43-1,2.16-.02.33,1.87-.83,3.47-1.03,5.27-.15,1.34-.62,2.65-.7,4.01-.04.73-.22,1.36-1.13,1.46Z"/>
    <path class="st27" d="M37.16,67.08c.44-.18.95-.39.86-.93-.11-.63-.65-.17-.99-.26-.44-.12-.84-.38-1.26-.57-.09-.81.5-1.05,1.1-1,2.07.17,4.12-.26,6.18-.07.6.06,1.18.15,1.54.7.49,1.02,1.06,1.7,2.06.42,1.09-1.08,3.45-1.18,4.86-.2.26.6.69,1.19.23,1.88-1.3.43-2.66.3-3.95.17-3.54-.34-7.08-.01-10.62-.12Z"/>
    <path class="st31" d="M68.08,54.74c-.08,1.46-.14,2.92-.24,4.38-.11,1.62-.53,3.1-2.22,3.87-1.1.42-1.64-.17-2.02-1.05.25-2.7,1.3-5.22,2.05-7.8.06-.2.37-.27.59-.34.98-.37,1.77-.39,1.82.94Z"/>
    <path class="st53" d="M68.08,54.74c-.44-.8-1.11-.58-1.78-.4-.76-.16-1.17-.71-1.05-1.36.45-2.54-.15-5.24,1.15-7.66.76-.65,1.59-1.05,2.63-.62.24,3.39-.7,6.68-.94,10.03Z"/>
    <path class="st49" d="M69.36,29.93c-.45-.06-.71-.16-.7-.74.03-1.03-.54-.75-1.07-.34-.56-.26-.88-.64-1.06-1.26-.83-2.94-.67-6.04-1.61-8.96-.15-.46.11-.9.62-1.11.32.25.64.47,1.09.35.9-.32,1.04.35,1.28.92.38.93.38,1.96.84,2.86.16.71.68,1.41.06,2.14-1.22.5-.17,1.29-.26,1.93.04.75.25,1.44.61,2.1.43.67.36,1.38.21,2.11Z"/>
    <path class="st9" d="M17.31,65.05c-3.18-.86-5.97-2.18-6.97-5.6.47-.43.61-.83.23-1.47-.74-1.25-.57-1.45,1.04-1.68,1.23.52,1.49,1.72,1.85,2.75.66,1.85,1.84,3.11,3.73,3.75.65.22,1.15.55,1.18,1.29-.06.63-.58.78-1.07.96Z"/>
    <path class="st46" d="M51.72,67.03c-.76-.36-.86-.99-.71-1.7.18-.79.77-1.05,1.51-1.17,1.6-.27,3.21-.41,4.83-.24,1,.4,1.94.84,1.19,2.15-2.19.89-4.56.61-6.83.97Z"/>
    <path class="st22" d="M11.32,56.71c-.46.09-.89.26-.39.73.4.38.69.77.71,1.29.04,1.02-.41,1.28-1.31.72-.72-2.25-1.78-4.42-1.8-6.84.11,0,.22,0,.33,0,.56-.29,1.05-.77,1.77-.68.1,0,.2,0,.3,0,1.13,1.12,1.34,3.7.39,4.79Z"/>
    <path class="st49" d="M25.17,8.26c-.39.37-.95.66-.71,1.35-.17.43-.48.64-.97.56-.88-.51-1.44.13-2.05.56-1.24.3-2.35.89-3.5,1.4-.57.25-1.11.61-1.8.41-.65-.16-1.07-.47-.89-1.21,2.86-2.39,6.16-3.42,9.92-3.07Z"/>
    <path class="st50" d="M58.55,66.06c-.19-.62-.5-1.13-1.18-1.36,1.12-1.64,2.95-1.96,4.7-2.42.26-.06.49-.18.66-.42.38-.39.81-.61,1.36-.35.2.79.71,1.29,1.53,1.48-1.12,1.38-2.45,2.45-4.32,2.72-.21-.11-.3-.33-.47-.48-.18.29.08.52.11.78-.79.6-1.59.5-2.39.04Z"/>
    <path class="st43" d="M17.31,65.05c-.41-.93.18-.9.83-.82,1.55-1.09,3.26-.9,4.55.48.12.44.24.87.36,1.31-2.03.35-3.82-.63-5.73-.97Z"/>
    <path class="st53" d="M67.52,42c.63-.71.46-2.08,1.88-2.13-.2,1.5.34,3.04-.28,4.52-.57.08-1.17.08-1.62.54-.38.39-.73.23-1.05-.11-.25-1.16-.87-2.45,1.07-2.82Z"/>
    <path class="st14" d="M68.75,21.65c-.7-.41-.62-1.15-.77-1.78-.19-.85-.46-1.61-1.35-2,0-.93,0-1.86,0-2.78.71.21,1,.78,1.13,1.4.36,1.71.66,3.44.98,5.16Z"/>
    <path class="st41" d="M15.25,11.33c.24.38.6.57,1.03.67.13,1.47-.45,2.14-2.12,2.45-.57-.38-1.2.29-1.77-.08.61-1.32,1.74-2.18,2.86-3.04Z"/>
    <path class="st5" d="M57.04,8.6c-1,.22-2.22-.11-2.85,1.06-.55.67-1.18.67-1.87.24-.51-.61-.57-1.27-.24-1.97,1.71-.18,3.34.17,4.95.68Z"/>
    <path class="st37" d="M68.04,25.74c-.47-.38-.77-.82-.62-1.46.09-.41-.22-.99.34-1.2.57-.21.72.42,1.04.7.53.71.18,1.57.39,2.33-.57.4-.9.14-1.15-.37Z"/>
    <path class="st10" d="M60.94,66.02c-.55-.15-1.37-.11-1.49-.69-.14-.71.83-.78,1.25-1.19.65-.64,1.09.18,1.88.61-.87.02-1.25.34-1.28.96-.12.1-.24.21-.36.31Z"/>
    <path class="st25" d="M67,45.05c.52-.57-.03-1.69.67-1.94.87-.31.59,1.22,1.46,1.27-.01.11-.04.22-.1.32-.68.24-1.22.87-2.05.66-.07-.07-.09-.14-.06-.21.03-.07.06-.1.08-.1Z"/>
    <path class="st5" d="M50.29,8.06c.32-.3.69-.34,1.09-.18.3.67,1.22,1.17.59,2.09-2.04.8-3.35.61-4.23-.6.04-.05.09-.1.13-.16.49-1,1.96-.09,2.42-1.16Z"/>
    <path class="st46" d="M8.97,27.84c.91-.22,1.64.17,1.66.99.02.77-1.04.35-1.5.71-.05-.57-.11-1.13-.16-1.7Z"/>
    <path class="st16" d="M9.96,21.97c.89.2,1.86.38.42,1.28-.71.45-.64,1.27-1.03,1.87-.19-1.12.38-2.11.61-3.15Z"/>
    <path class="st56" d="M68.04,25.74c.38.12.77.25,1.15.37.49.58.13,1.14-.04,1.7-1.48-.13-.96-1.28-1.11-2.08Z"/>
    <path class="st21" d="M50.29,8.06c-.38,1.22-1.46,1.08-2.42,1.16.14-1.13,1.1-.9,1.83-1.04.19-.04.39-.08.58-.12Z"/>
    <path class="st21" d="M52.21,9.34c-.62-.3-1.87-.27-.83-1.46.24.01.47.03.71.04.72.33.59.86.34,1.41-.07,0-.14,0-.21,0Z"/>
    <path class="st36" d="M52.21,9.34c.07.04.14.03.21,0,.55.33,1.17.25,1.77.32,1.92.42,3.84.85,5.77,1.27,1.55.34,2.56,1.13,3.48,2.51.89,1.32,1.89,2.48,2.11,4.09,1.18,3.69,1.2,7.58,2.05,11.33-.57,4.38-.33,8.77-.07,13.15-.81.92-.53,2.01-.52,3.06-.05.1-.05.21-.02.31-.21,1.81-.42,3.62-.65,5.43-.15,1.18-.28,2.36-.03,3.54-.42,2.48-.79,4.98-2.21,7.17-.32.25-.64.5-.96.76.03.55-.33.66-.79.64-1.66.6-3.16,1.6-4.97,1.79-2.14,0-4.27.05-6.35.62-1.3.41-2.68-.27-3.97.27-1.06.78-1.98.5-2.83-.36-2.82-.39-5.64-.03-8.45.08-1.91-.74-3.92.16-5.86-.35-.44-.12-1.03.1-1.38-.11-1.94-1.14-3.9-.28-5.85-.14-1.51-.17-3-.6-4.55-.48-.38-.91-1.37-.45-1.98-.82-1.31-.8-2.67-1.46-3.19-3.14-.38-1.22-.78-2.51-1.64-3.55-.12-1.6-.91-3.14-.39-4.79-.13-1.49.3-3.02-.3-4.48-.33-.64-.44-1.25.29-1.72-.07-6.89-.14-13.78.76-20.64.59-3.6.92-7.25,2.47-10.64.39-1.08,1.64-1.45,2.12-2.45,1.66-.63,3.05-1.88,4.94-1.96.74-.69,1.68-.36,2.53-.47.22.33.47.04.7.04,3.54.2,7.1-.06,10.59-.32,3.08-.23,6.05-.13,9.07.25,1.2.15,2.38-.67,3.61-.16,1.49.23,2.99.41,4.47-.04Z"/>
    <path class="st35" d="M10.93,45.72c-.04.58.16,1.2-.29,1.72-.4.36.1,1.05-.66,1.39-.5-.92-1.55-1.66-.82-2.92.47-.8,1.13-.6,1.77-.19Z"/>
    <path class="st51" d="M10.64,51.92c-.39.71-.6,1.86-1.77.68.13-.92.26-1.84.45-3.17.56,1.06.94,1.77,1.31,2.48Z"/>
    <path class="st24" d="M44.22,65.24c.96-.01,1.92,0,2.83.36.2.31.63.64.13.98-1.07.73-2.82-.08-2.96-1.34Z"/>
    <path class="st5" d="M23.76,9.57c-.76.6-1.65.52-2.53.47.65-1.14,1.52-1.17,2.53-.47Z"/>
    <g>
      <path class="st1" d="M64.71,32.51c.03-.07.05-.13.08-.2-.03.05-.07.1-.07.15,0,.02,0,.03,0,.05Z"/>
      <path class="st1" d="M19.66,18.72c.26-.29.54-.57.83-.83-.21.05-.43.1-.64.14-.04.25-.1.48-.19.7Z"/>
      <path class="st1" d="M18.43,56.34c.62.07.89.39.84.93.24-.13.49-.2.74-.21-.46-.47-.88-.98-1.26-1.52-.02.17-.03.34-.06.51-.07.11-.16.2-.26.29Z"/>
      <path class="st1" d="M18.46,20.27c.1-.16.22-.3.33-.46-.14.1-.29.19-.45.27.04.06.08.12.13.18Z"/>
      <path class="st31" d="M63.13,62.26c-.26.21-.53.43-.79.64.09.5.16,1.02.72,1.24.25.1.52-.04.46-.3-.12-.53.82-1.32-.39-1.59Z"/>
      <path class="st24" d="M15.23,47.45c.06-.21.14-.43.19-.64.13-.52.41-1.06.97-1.02.05,0,.07.02.11.02v-6.91c-1.02-.79.02-2.04-.26-3-.19-.66-.33-1.35.26-1.53v-6.41s-.09-.02-.14-.03c-.44-.34-.97-.4-1.51-.43-.55.71.02,1.43,0,2.15-.26,5.94.08,11.87.06,17.81.11,0,.21,0,.32,0h0Z"/>
      <path class="st33" d="M61.63,20.85c-.62.51-.1,1.24.22,1.85.27.52,1.23.99.27,1.63.18.85.29,1.73.29,2.63v6.45c.17.03.33.07.39.17.89,1.33,1.21.31,1.59-.35.13-.22.22-.47.31-.72,0-.02,0-.03,0-.05,0-.05.05-.1.07-.15-.09-1.24-.42-2.52-.22-3.71.44-2.65-.17-5.13-.79-7.65-.69-.62-1.57-.57-2.14-.1Z"/>
      <path class="st12" d="M64.42,37.14c-.84-.22-1.52-.08-2.01.47v7.58c.19.07.37.14.56.2h0c.13-.86.82-.74,1.43-.75h0c.03-.85.18-1.72.07-2.56-.22-1.65.57-3.3-.05-4.94Z"/>
      <path class="st17" d="M16.48,27.16s.01.01.02.02v-.22c0-1.93.45-3.75,1.23-5.37-1.02-1.1-1.73-.09-2.53.38-.86,1.79-.47,3.66-.35,5.52.45-.57.99-.65,1.63-.32Z"/>
      <path class="st17" d="M16.51,27.95v-.77s-.01-.01-.02-.02c-.63-.32-1.18-.24-1.63.32.54.02,1.07.08,1.51.43.05.02.09.02.14.03Z"/>
      <path class="st57" d="M55.9,15.24c.83.4,1.72.72,2.21,1.57-.09.22-.25.38-.44.46,1.08.82,2.02,1.82,2.77,2.98.05-.11.09-.23.16-.34.66.33.94.04,1.04-.59.1-.6.22-1.19.33-1.78-1.7-1.7-3.51-3.23-5.98-3.77-.82.44-1.27.88-.09,1.46Z"/>
      <path class="st24" d="M62.24,50.39c-.2,1.27-.59,2.47-1.14,3.58-.07.59-.22,1.16-.53,1.72,0-.25,0-.49-.02-.74-.25.4-.51.79-.8,1.15.04.15.1.29.2.43.04.03.08.06.12.09.04-.08.11-.16.19-.24,1.03-.35,1.69.04,2.07.99.9-1.96,1.3-4.02,1.36-6.15-.79,0-1.18-.36-1.46-.83Z"/>
      <path class="st58" d="M34.76,14.98c.12-.65,1.16-.78,1.03-1.58-2.72.23-5.43.46-8.15.69.15.3.31.6.46.9h6.66Z"/>
      <path class="st44" d="M45.77,14.03c.16.73-.62.66-1,.95h6.22c.06,0,.12,0,.18,0-.06-.19-.11-.39-.17-.58-.43.15-.6-.2-.87-.38-1.9-1.26-4.05-1.03-6.18-.97.74.09,1.61.03,1.82.97Z"/>
      <path class="st55" d="M62.97,45.85c-.21.03-.39,0-.56-.06v2.66c0,.24-.02.48-.03.71.61.56.77,1.47,1.33,2.06.55-1.46.36-2.99.39-4.49-.28-.34-.56-.68-.84-1.02-.09.05-.17.1-.28.13Z"/>
      <path class="st55" d="M62.97,45.85c.1-.03.19-.09.28-.13-.09-.11-.18-.22-.27-.33h0c-.19-.07-.37-.14-.56-.2v.6c.17.06.35.1.56.06Z"/>
      <path class="st55" d="M62.24,50.39c.28.47.67.83,1.46.83-.56-.6-.72-1.51-1.33-2.06-.02.42-.07.83-.13,1.23Z"/>
      <path class="st25" d="M18,56.42s0,0,0,0c.06-.03.11-.06.17-.09.1,0,.18.01.27.02.1-.09.19-.18.26-.29.03-.17.04-.34.06-.51-1.4-1.99-2.25-4.44-2.25-7.1v-.25c-.52.38-1,.52-1.23-.55-.14-.04-.26-.1-.36-.2,0,1.05-.02,2.1.39,3.1.81,2,2.56,3.59,2.7,5.87,0,0,0,0,0,0Z"/>
      <path class="st25" d="M15.23,47.45h0c-.11,0-.21,0-.32,0,.1.1.22.16.36.2-.01-.06-.03-.13-.04-.2Z"/>
      <path class="st39" d="M51.74,15.02c1.7.12,3.3.62,4.72,1.44-.37-.4-.77-.78-1.35-.97-.4-.13-.54-.56-.49-.99.11-.84.91-.47,1.36-.72-.27-.11-.57-.35-.81-.3-1.4.28-3.19-1.08-4.17.92.43.1.65.32.74.61Z"/>
      <path class="st39" d="M54.62,14.5c-.06.43.08.86.49.99.58.19.98.56,1.35.97.42.24.82.52,1.21.82.19-.08.35-.24.44-.46-.49-.85-1.39-1.17-2.21-1.57-1.18-.57-.73-1.02.09-1.46-.45.25-1.25-.13-1.36.72Z"/>
      <path class="st39" d="M51.74,15.02c-.1-.29-.32-.51-.74-.61.06.19.11.39.17.58.19,0,.38.02.57.03Z"/>
      <path class="st48" d="M19.88,17.18c.03.3.02.58-.02.85.22-.04.43-.09.64-.14,1.27-1.15,2.78-2,4.43-2.48.32-.18.65-.34.58-.75-.07-.38-.7-.18-1.06-.28-1.34.32-2.67.66-4.01.96-.67.15-1.13,1.1-2,.51-.24,1.18.49,1.37,1.44,1.34Z"/>
      <path class="st11" d="M41.19,14.5c.07.16.11.32.09.48h2.97c-.2-.62-.34-1.25-.3-1.92-.94.03-1.89.06-2.83.09-.29.46-.36.92.07,1.35Z"/>
      <path class="st11" d="M44.77,14.98c.38-.29,1.16-.22,1-.95-.21-.94-1.08-.88-1.82-.97-.04.66.1,1.3.3,1.92h.52Z"/>
      <path class="st58" d="M63.57,34.71c-.49.18-.86.06-1.17-.17v2.13c.66-.45,1.22-.29,2.01.46.12-1.61.24-3.22.36-4.82-.03.07-.05.13-.08.2-.04.91-.16,1.86-1.13,2.2Z"/>
      <path class="st58" d="M63.57,34.71c.97-.35,1.1-1.3,1.13-2.2-.09.25-.18.49-.31.72-.39.66-.7,1.69-1.59.35-.06-.1-.22-.14-.39-.17v1.13c.31.23.67.35,1.17.17Z"/>
      <path class="st58" d="M62.41,36.67v.93c.49-.55,1.17-.68,2.01-.47-.79-.75-1.35-.92-2.01-.46Z"/>
      <path class="st34" d="M35.63,14.98h5.25s-.08-.08-.12-.11c-.57-.71-.59-1.3.36-1.71-1.76.44-3.57-.26-5.33.24.72.73.27,1.16-.16,1.58Z"/>
      <path class="st34" d="M34.76,14.98h.87c.43-.43.88-.85.16-1.58.13.8-.91.93-1.03,1.58Z"/>
      <path class="st34" d="M40.76,14.86s.08.08.12.11h.4c.02-.15-.01-.32-.09-.48-.43-.43-.36-.88-.07-1.35-.95.41-.93,1.01-.36,1.71Z"/>
      <path class="st18" d="M23.34,59.71c.04-.09.09-.16.15-.22-1.3-.58-2.47-1.41-3.47-2.43-.25.02-.5.08-.74.21-.01.13-.04.27-.09.43.25.73,1.21,1.48-.05,2.17,1.75-.14,3.43.05,4.91,1.06-.1-.49-.97-.67-.71-1.23Z"/>
      <path class="st7" d="M18,21.07c.15-.27.3-.54.47-.8-.04-.06-.09-.12-.13-.18-.11.06-.22.11-.34.16-1.59-.15-1.02-1.25-.87-2.04.13-.69.73-1.27.61-2.05-2.28,1.35-2.22,3.66-2.53,5.82,1.06-1.72,1.37-1.86,2.79-.9Z"/>
      <path class="st7" d="M17.74,21.6c.09-.18.17-.35.26-.52-1.42-.96-1.73-.82-2.79.9.79-.47,1.51-1.48,2.53-.38Z"/>
      <path class="st24" d="M17,55.22c-.05-.43.26-.99-.19-1.26-1.35-.82-1.17-2.21-1.5-3.42-.33,1.07.05,2.08.31,3.09,1.78.87.59,2.04.34,3.11,0,.27-.02.55.26.72.63-.21,1.27-.41,1.7-.95-.75.01-.83-.68-.91-1.3Z"/>
      <path class="st24" d="M16.81,53.96c.45.27.14.83.19,1.26.07.62.16,1.31.91,1.3.03-.04.07-.06.1-.11,0,0,0,0,0,0-.14-2.29-1.89-3.88-2.7-5.87.34,1.2.15,2.6,1.5,3.42Z"/>
      <path class="st18" d="M25.21,60.08c.01.37-.1.73-.43,1.06,1.6-.11,3.02,1.03,4.66.65-.58-.39-1.18-.76-1.4-1.36h-.1c-.94,0-1.84-.13-2.72-.36Z"/>
      <path class="st15" d="M61.14,20.36c-.16.03-.32.06-.52.1-.03,0-.05-.02-.08-.03.09.15.18.3.26.45.07-.18.18-.35.34-.52Z"/>
      <path class="st15" d="M62.15,19.82c.57-.04,1.13.34,1.62,1.14-.07-1.4-.86-2.44-1.81-3.4.3,1.22.4,1.87.19,2.27Z"/>
      <path class="st15" d="M62.15,19.82c-.15.28-.48.43-1.01.55-.16.17-.27.34-.34.52.6,1.06,1.05,2.22,1.32,3.45.96-.64,0-1.11-.27-1.63-.32-.6-.84-1.34-.22-1.85.57-.47,1.46-.52,2.14.1-.49-.8-1.05-1.18-1.62-1.14Z"/>
      <path class="st15" d="M60.59,19.92c-.07.11-.11.22-.16.34.04.06.07.12.1.17.03,0,.05.02.08.03.2-.03.36-.06.52-.1.02-.02.03-.04.04-.05.32-.31.65-.47.97-.49.22-.39.11-1.05-.19-2.27-.11.59-.23,1.18-.33,1.78-.1.63-.38.91-1.04.59Z"/>
      <path class="st15" d="M62.15,19.82c-.32.02-.65.18-.97.49-.02.02-.03.04-.04.05.54-.11.86-.26,1.01-.55Z"/>
      <path class="st25" d="M18.99,57.46c.09-.08.18-.14.28-.19.05-.54-.22-.85-.84-.93-.04.04-.06.08-.1.11-.13.03-.23.05-.34.06-.06,1.22-.21,1.28-1.79.95.83.96,1.58,2.03,2.92,2.41-.11-.8-.86-1.56-.14-2.41Z"/>
      <path class="st25" d="M18,56.41s0,0,0,0c0,.04,0,.07,0,.1.1,0,.21-.02.34-.06.04-.03.06-.08.1-.11-.08,0-.17-.02-.27-.02-.05.03-.11.06-.17.09Z"/>
      <path class="st25" d="M19.18,57.7c.05-.16.08-.3.09-.43-.09.05-.19.11-.28.19-.72.85.03,1.61.14,2.41,1.26-.7.31-1.44.05-2.17Z"/>
      <path class="st25" d="M17.99,56.52s-.06,0-.09,0c-.43.54-1.06.74-1.7.95,1.58.32,1.73.26,1.79-.95Z"/>
      <path class="st25" d="M17.9,56.52s.06,0,.09,0c0-.04,0-.06,0-.1-.03.04-.07.07-.1.11Z"/>
      <path class="st28" d="M19.85,18.03c-.94-.2-1.46-.33-1.69-.56-.03.15-.07.29-.13.41-.43.9-.15,1.55.3,2.21.16-.08.31-.17.45-.27.27-.38.56-.75.87-1.09.09-.22.16-.45.19-.7,0,0,0,0,0,0Z"/>
      <path class="st28" d="M18.44,15.85c-.23.1-.47.2-.7.31.18.15.29.34.36.53.08-.23.19-.49.34-.83Z"/>
      <path class="st28" d="M18.16,17.47c.24.23.75.36,1.69.56,0,0,0,0,0,0,.04-.27.05-.55.02-.85-.95.04-1.68-.16-1.44-1.34-.16.34-.27.61-.34.83.1.26.11.54.07.79Z"/>
      <path class="st28" d="M17.13,18.2c-.15.8-.72,1.89.87,2.04.12-.04.23-.1.34-.16-.45-.66-.73-1.31-.3-2.21.06-.12.1-.26.13-.41-.18-.18-.19-.42-.07-.79-.07-.19-.18-.37-.36-.53.12.78-.48,1.36-.61,2.05Z"/>
      <path class="st28" d="M18.09,16.68c-.12.37-.11.61.07.79.04-.25.03-.53-.07-.79Z"/>
      <path class="st13" d="M25.99,14.63c.09.21.09.37.04.52.47-.08.96-.14,1.45-.16-.03-.29.05-.6.16-.92-.99.86-2.19-.47-3.19.3.56-.14,1.27-.39,1.55.26Z"/>
      <path class="st13" d="M27.93,14.98h.18c-.15-.3-.31-.6-.46-.9-.12.32-.19.63-.16.92.15,0,.3-.02.45-.02Z"/>
      <path class="st13" d="M25.51,14.66c.07.41-.26.57-.58.75.36-.1.73-.19,1.1-.26.05-.15.05-.32-.04-.52-.28-.65-.98-.4-1.55-.26.36.1.99-.1,1.06.28Z"/>
      <path class="st12" d="M24.5,60.33c-.18.18-.34.38-.46.6.19.27.46.25.74.2-.28-.29-.33-.56-.28-.81Z"/>
      <path class="st12" d="M24.66,59.93c-.4-.13-.79-.27-1.18-.44-.06.06-.11.13-.15.22-.26.55.6.73.71,1.23.12-.23.28-.42.46-.6.03-.14.09-.27.16-.41Z"/>
      <path class="st12" d="M24.85,59.98c-.11.12-.23.24-.35.36-.05.25,0,.51.28.81.33-.33.44-.69.43-1.06-.12-.03-.24-.06-.36-.1Z"/>
      <path class="st12" d="M24.5,60.33c.11-.12.23-.24.35-.36-.06-.02-.12-.03-.18-.05-.08.13-.13.27-.16.41Z"/>
      <path class="st51" d="M60.02,56.97s.08-.02.12-.02c.67.09,1.39.08,1.79.78.14-.12.27-.24.41-.36-.76-.22-1.61-.24-2.27-.75-.06.11-.07.23-.05.35Z"/>
      <path class="st51" d="M60.26,56.39c-.09.08-.15.16-.19.24.66.51,1.5.52,2.27.75-.38-.95-1.04-1.33-2.07-.99Z"/>
      <path class="st51" d="M60.14,56.95s-.08.02-.12.02c.02.14.08.28.18.42.52.36,1.11.41,1.72.34-.39-.7-1.11-.69-1.79-.78Z"/>
      <path class="st8" d="M63.58,45.49c.45.19.59.63.51,1.24.46-.65.34-1.38.31-2.09-.26.29-.51.61-.82.86Z"/>
      <path class="st8" d="M62.97,45.38c.25,0,.45.04.61.11.3-.25.55-.56.82-.86h0c-.61,0-1.29-.12-1.43.75Z"/>
      <path class="st8" d="M63.58,45.49c-.1.08-.22.16-.34.22.28.34.56.68.84,1.02.08-.61-.06-1.05-.51-1.24Z"/>
      <path class="st8" d="M63.58,45.49c-.16-.07-.36-.11-.61-.11.09.11.18.22.27.33.12-.06.23-.14.34-.22Z"/>
      <path class="st25" d="M15.62,53.63c.04.96,0,1.94.27,2.88-.15-.95.8-2.02-.27-2.88Z"/>
      <path class="st25" d="M15.62,53.63c1.07.86.12,1.92.27,2.88.02.08.03.16.06.24.25-1.07,1.45-2.24-.34-3.11Z"/>
      <path class="st9" d="M16.24,35.9c.28.96-.76,2.21.26,3v-4.54c-.6.19-.45.88-.26,1.53Z"/>
      <path class="st43" d="M16.51,45.81s-.07-.02-.11-.02c-.56-.04-.84.49-.97,1.02-.05.22-.13.43-.19.64.45-.06.85.15,1.27.27v-1.9Z"/>
      <path class="st43" d="M15.32,47.66s-.03-.01-.05-.02c.23,1.07.71.93,1.23.55v-.35c-.36-.2-.72-.43-1.19-.19Z"/>
      <path class="st43" d="M16.51,47.85v-.14c-.42-.12-.82-.32-1.27-.27.01.07.03.13.04.2.02,0,.03.01.05.02.47-.24.82-.02,1.19.19Z"/>
      <g>
        <path class="st0" d="M46.93,61.11c.81.69,1.82.26,2.63.25.56-.01.82-.42.78-.92h-17.19c-.13.15-.23.35-.28.65.82.36,2.09-.01,2.56,1.12,3.33.57,6.62.01,9.91-.32.11-1.06.45-1.73,1.58-.77Z"/>
        <path class="st30" d="M50.89,60.99c-.75,1.33-2.22.98-3.41.78-.77-.13-1.44-.46-2.14.11,2.66.54,5.33.2,7.98.04,2.12-.13,4.33-.29,5.82-2.14.55-.65-.21-1.3,0-1.96.01-.13.05-.23.09-.33-.05-.05-.11-.1-.16-.15-.12-.04-.24-.08-.37-.09-2.02,1.95-4.7,3.16-7.64,3.18,0,.17-.05.35-.17.56Z"/>
        <path class="st30" d="M47.49,61.77c1.19.19,2.65.55,3.41-.78.12-.2.16-.39.17-.56-.03,0-.05,0-.08,0h-.64c.04.5-.22.9-.78.92-.81.02-1.82.44-2.63-.25-1.13-.95-1.47-.29-1.58.77.69-.57,1.37-.23,2.14-.11Z"/>
        <path class="st4" d="M32.28,61.14c-.08-.26-.05-.5.05-.71h-4.4c-.19,0-.38-.03-.57-.04-.13.84.39,1.06,2.08,1.4,1.97.48,4.02,0,6,.41-.69-.34-1.41-.62-2.18-.6-.46.02-.82.03-.98-.46Z"/>
        <path class="st4" d="M32.87,61.08c.05-.3.15-.5.28-.65h-.82c-.1.21-.13.45-.05.71.16.5.52.48.98.46.77-.03,1.49.25,2.18.6-.48-1.13-1.75-.76-2.56-1.12Z"/>
        <path class="st34" d="M59.15,59.77c1.62.21,2.32-.76,2.78-2.05-.61.07-1.2.03-1.72-.34-.1-.14-.16-.28-.18-.42-.38.05-.66.21-.79.52.81.73,1.27,1.48-.08,2.29Z"/>
        <path class="st34" d="M59.15,59.77c1.35-.81.89-1.55.08-2.29-.04.1-.07.2-.09.33-.2.65.56,1.3,0,1.96Z"/>
      </g>
    </g>
  </g>
  <g>
    <path class="st40" d="M22.99,47.96c-.03-2.05-.12-4.11-.06-6.16.08-2.44.05-4.88.39-7.31.23-.35.38-.7-.09-.99.12-.33.06-.73.32-1.02.42-.31.62-1.05,1.37-.67.23.18.29.45.27.72-.38,3.71-.26,7.44-.41,11.16,0,.06-.04.13-.06.19-.05.08-.1.19-.19.21-.97.29-.56.58,0,.86.51.8.37,1.64.18,2.48-.05.09-.13.16-.21.22-.43.08-.94-.1-1.26.38-.1.01-.18-.01-.25-.08Z"/>
    <path class="st5" d="M32.42,22.07c1.27-.65,2.64-.18,3.95-.37,2.11-.3,4.24-.17,6.35,0,1.2.09,2.44-.15,3.61.32-.18.41-.69.47-.9.85-.08.06-.17.11-.25.16-1.52.52-3.05-.01-4.57.03-2.59.06-5.17.32-7.77.29-.36,0-.75.1-1.02-.26-.37-.67.08-.87.6-1.02Z"/>
    <path class="st21" d="M50.49,22.26c2.58.17,4.49,1.29,5.45,3.79.24.51.46,1.02.25,1.6-.32.48-.69.4-1.09.12-.47-.82-.84-1.69-1.45-2.46-.48-.61-.98-1.07-1.74-1.21-.82-.15-1.59-.48-2.41-.58-.38-.05-.72-.17-.81-.61.29-1.1,1.12-.67,1.81-.64Z"/>
    <path class="st37" d="M39.22,56.41c-2.69.05-5.32-.64-8.01-.62-.27-.23-.53-.46-.4-.87.71-.87,1.8-.89,2.63-.65,1.34.4,2.66.49,4.02.44.4-.01.79.04,1.19.11.32.09.52.41.86.47.38.07.62.29.53.69-.1.41-.38.61-.82.43Z"/>
    <path class="st56" d="M57.48,34.72c0,1.94.02,3.87.02,5.81-.18.22-.35.45-.39.74-.05.41-.25.64-.68.64-.45-.1-.55-.45-.57-.83-.08-2.29-.21-4.58.06-6.86.01-.1.07-.18.13-.27,1.04-.72,1.09-.7,1.42.76Z"/>
    <path class="st46" d="M24.77,31.89c-.37.27-.71.62-1.22.59-.03-.19-.07-.38-.1-.57-.17-.67.69-1.14.34-1.84.1-1.43.65-2.75,1.03-4.11.05-.18.17-.28.34-.33.41-.21.81-.59,1.23-.01.19,1.09-.47,2.03-.59,3.08-.08.78-.35,1.55-.4,2.34-.02.42-.12.8-.64.85Z"/>
    <path class="st27" d="M39.22,56.41c.25-.11.54-.23.49-.54-.06-.37-.37-.1-.56-.15-.25-.07-.48-.22-.72-.33-.05-.47.28-.61.62-.59,1.17.1,2.33-.15,3.5-.04.34.03.67.09.87.41.28.6.6.99,1.17.24.62-.63,1.96-.69,2.76-.12.15.35.39.69.13,1.1-.74.25-1.51.17-2.24.1-2.01-.2-4.01,0-6.02-.07Z"/>
    <path class="st31" d="M56.76,49.21c-.04.85-.08,1.71-.13,2.56-.06.95-.3,1.81-1.26,2.26-.62.24-.93-.1-1.14-.62.14-1.58.74-3.05,1.17-4.55.03-.12.21-.16.34-.2.55-.21,1-.23,1.03.55Z"/>
    <path class="st53" d="M56.76,49.21c-.25-.47-.63-.34-1.01-.23-.43-.09-.66-.42-.6-.79.25-1.49-.09-3.06.65-4.47.43-.38.9-.61,1.49-.36.14,1.98-.4,3.9-.54,5.86Z"/>
    <path class="st49" d="M57.48,34.72c-.25-.03-.4-.1-.4-.43.02-.6-.3-.44-.61-.2-.32-.15-.5-.37-.6-.74-.47-1.72-.38-3.53-.92-5.23-.08-.27.07-.52.35-.65.18.15.36.28.62.2.51-.18.59.2.73.54.22.54.21,1.14.47,1.67.09.41.39.82.03,1.25-.69.29-.1.75-.15,1.13.02.44.14.84.35,1.23.24.39.21.81.12,1.23Z"/>
    <path class="st9" d="M27.96,55.23c-1.8-.5-3.38-1.27-3.95-3.27.27-.25.35-.49.13-.86-.42-.73-.32-.85.59-.98.7.3.84,1,1.05,1.6.37,1.08,1.05,1.81,2.12,2.19.37.13.65.32.67.76-.03.37-.33.46-.61.56Z"/>
    <path class="st46" d="M47.48,56.38c-.43-.21-.49-.58-.4-1,.1-.46.44-.61.85-.69.91-.16,1.82-.24,2.74-.14.57.23,1.1.49.68,1.26-1.24.52-2.58.35-3.87.57Z"/>
    <path class="st22" d="M24.57,50.36c-.26.05-.5.15-.22.43.23.22.39.45.4.75.02.59-.23.75-.74.42-.41-1.31-1.01-2.58-1.02-4,.06,0,.12,0,.19,0,.32-.17.6-.45,1-.4h.17c.64.66.76,2.16.22,2.8Z"/>
    <path class="st49" d="M32.42,22.07c-.22.22-.54.39-.4.79-.1.25-.27.37-.55.33-.5-.3-.81.07-1.16.32-.7.17-1.33.52-1.99.82-.32.15-.63.36-1.02.24-.37-.09-.61-.28-.5-.7,1.62-1.4,3.49-2,5.62-1.79Z"/>
    <path class="st50" d="M51.35,55.82c-.11-.36-.29-.66-.67-.79.63-.95,1.67-1.15,2.66-1.42.15-.03.28-.11.37-.24.22-.23.46-.36.77-.21.11.46.4.76.87.86-.64.81-1.39,1.43-2.45,1.59-.12-.06-.17-.19-.27-.28-.1.17.05.3.06.46-.45.35-.9.29-1.36.02Z"/>
    <path class="st43" d="M27.96,55.23c-.23-.54.1-.52.47-.48.88-.63,1.85-.53,2.58.28.07.25.14.51.2.76-1.15.2-2.17-.37-3.25-.57Z"/>
    <path class="st53" d="M56.44,41.77c.36-.41.26-1.22,1.07-1.24-.11.88.19,1.78-.16,2.64-.33.05-.66.05-.92.31-.21.23-.41.14-.6-.06-.14-.68-.49-1.43.6-1.65Z"/>
    <path class="st14" d="M57.13,29.89c-.39-.24-.35-.67-.43-1.04-.11-.49-.26-.94-.77-1.17,0-.54,0-1.08,0-1.63.4.12.57.46.64.82.2,1,.37,2.01.55,3.01Z"/>
    <path class="st41" d="M26.79,23.86c.13.22.34.34.59.39.07.86-.26,1.25-1.2,1.43-.33-.22-.68.17-1-.04.35-.77.99-1.27,1.62-1.77Z"/>
    <path class="st5" d="M50.49,22.26c-.57.13-1.26-.06-1.61.62-.31.39-.67.39-1.06.14-.29-.35-.32-.74-.13-1.15.97-.11,1.9.1,2.81.4Z"/>
    <path class="st37" d="M56.73,32.28c-.27-.22-.43-.48-.35-.85.05-.24-.13-.58.19-.7.33-.12.41.24.59.41.3.42.1.91.22,1.36-.32.23-.51.08-.65-.22Z"/>
    <path class="st10" d="M52.71,55.79c-.31-.09-.78-.06-.84-.4-.08-.42.47-.46.71-.7.37-.37.62.1,1.07.36-.5.01-.71.2-.73.56l-.21.18Z"/>
    <path class="st25" d="M56.14,43.55c.3-.34-.02-.99.38-1.13.49-.18.34.71.83.74,0,.07-.02.13-.06.18-.38.14-.69.51-1.16.39-.04-.04-.05-.08-.04-.12.02-.04.03-.06.05-.06Z"/>
    <path class="st5" d="M46.66,21.95c.18-.18.39-.2.62-.11.17.39.69.68.34,1.22-1.16.47-1.9.36-2.4-.35.03-.03.05-.06.07-.09.28-.58,1.11-.05,1.37-.68Z"/>
    <path class="st46" d="M23.23,33.5c.52-.13.93.1.94.58,0,.45-.59.2-.85.41-.03-.33-.06-.66-.09-.99Z"/>
    <path class="st16" d="M23.8,30.07c.5.12,1.05.22.24.75-.4.26-.36.74-.58,1.09-.11-.66.21-1.23.34-1.84Z"/>
    <path class="st56" d="M56.73,32.28c.22.07.44.15.65.22.28.34.07.67-.02.99-.84-.08-.54-.74-.63-1.21Z"/>
    <path class="st21" d="M46.66,21.95c-.22.71-.83.63-1.37.68.08-.66.62-.53,1.04-.61.11-.02.22-.05.33-.07Z"/>
    <path class="st21" d="M47.76,22.7c-.35-.18-1.06-.16-.47-.85.13,0,.27.01.4.02.41.19.34.5.19.83-.04,0-.08,0-.12,0Z"/>
    <path class="st36" d="M47.76,22.7s.08.02.12,0c.31.19.66.15,1,.19,1.09.25,2.18.5,3.27.74.88.2,1.45.66,1.97,1.46.5.77,1.07,1.45,1.19,2.39.67,2.15.68,4.43,1.16,6.61-.32,2.56-.19,5.12-.04,7.68-.46.53-.3,1.17-.3,1.78-.03.06-.03.12,0,.18-.12,1.06-.24,2.12-.37,3.17-.08.69-.16,1.38-.02,2.07-.24,1.45-.45,2.91-1.25,4.19-.18.15-.36.29-.54.44.01.32-.19.39-.45.38-.94.35-1.79.94-2.82,1.05-1.21,0-2.42.03-3.6.36-.74.24-1.52-.16-2.25.16-.6.45-1.13.29-1.6-.21-1.6-.23-3.2-.02-4.79.05-1.08-.44-2.23.09-3.32-.21-.25-.07-.58.06-.78-.06-1.1-.67-2.21-.17-3.32-.08-.86-.1-1.7-.35-2.58-.28-.21-.53-.77-.26-1.12-.48-.74-.47-1.51-.85-1.81-1.83-.22-.71-.44-1.46-.93-2.08-.07-.93-.52-1.84-.22-2.8-.07-.87.17-1.76-.17-2.62-.19-.38-.25-.73.17-1-.04-4.02-.08-8.05.43-12.05.33-2.1.52-4.24,1.4-6.21.22-.63.93-.85,1.2-1.43.94-.37,1.73-1.1,2.8-1.14.42-.4.95-.21,1.43-.27.12.19.26.02.4.02,2.01.12,4.03-.04,6.01-.19,1.75-.13,3.43-.08,5.14.14.68.09,1.35-.39,2.05-.09.85.13,1.69.24,2.54-.02Z"/>
    <path class="st35" d="M24.35,43.94c-.02.34.09.7-.17,1-.23.21.06.62-.37.81-.28-.54-.88-.97-.47-1.7.27-.47.64-.35,1-.11Z"/>
    <path class="st51" d="M24.18,47.56c-.22.42-.34,1.09-1,.4.07-.54.15-1.07.26-1.85.32.62.53,1.03.74,1.45Z"/>
    <path class="st24" d="M43.23,55.34c.54,0,1.09,0,1.6.21.12.18.36.37.07.57-.61.43-1.6-.05-1.68-.78Z"/>
    <path class="st5" d="M31.62,22.83c-.43.35-.93.3-1.43.27.37-.66.86-.68,1.43-.27Z"/>
    <path class="st31" d="M53.5,53.98c.15-.12.3-.25.45-.38.68.16.15.62.22.93.03.15-.12.23-.26.18-.32-.13-.36-.43-.41-.73Z"/>
    <path class="st24" d="M26.6,44.95c0-3.47-.18-6.93-.04-10.4.02-.42-.31-.84,0-1.25.25-.33.56-.38.92-.19,1,.62,1.02,1.61.96,2.61-.03.56.05,1.12-.12,1.67-.85,1.19-.9,1.79-.21,2.52.06.04.13.08.14.13.23,1.72.35,3.44-.06,5.15-.07.06-.16.1-.26.13-.4.06-.68-.48-1.12-.24-.09-.02-.17-.06-.23-.13Z"/>
    <path class="st0" d="M43.86,53.38c-1.87.2-3.74.52-5.62.19-.39-.2-.8-.36-1.24-.35-.26,0-.47.02-.56-.27-.08-.25,0-.48.19-.64.43-.37.84-.78,1.48-.74,2.38.02,4.76-.25,7.15-.09.36.02.73,0,1.08.1.43.32.99.66.66,1.27-.43.78-1.26.57-1.93.46-.44-.07-.82-.27-1.21.06Z"/>
    <path class="st33" d="M54.31,29.48c.35,1.47.7,2.92.45,4.46-.11.7.07,1.44.12,2.17-.01.03-.04.06-.04.09-.02.54-.08,1.11-.64,1.32-.63.23-.89-.38-1.25-.73-.1-1.76-.4-3.51-.03-5.27.23-.41.06-.74-.14-1.11-.22-.42-.33-.9.07-1.29.5-.5,1.03-.35,1.47.38Z"/>
    <path class="st30" d="M43.86,53.38c.06-.62.25-1.01.89-.45.46.4,1.03.15,1.49.14.51-.01.58-.61.23-1.08-.08-.48.27-.62.6-.58,1.44.19,2.77-.17,4.08-.71.15-.06.33-.03.49.03.51.46.86.92.05,1.42-.85,1.08-2.1,1.17-3.3,1.25-1.5.1-3.02.29-4.53-.02Z"/>
    <path class="st12" d="M54.68,38.93c.35.96-.1,1.92.03,2.89.06.49-.02,1-.04,1.5-.24.27-.44.58-.81.71-.31.05-.52-.13-.73-.3-.18-.21-.35-.43-.42-.71.25-1.21,0-2.45.21-3.67.72-.98,1.1-1.07,1.77-.41Z"/>
    <path class="st17" d="M27.43,33.54c-.25-.2-.55-.24-.86-.25-.07-1.08-.29-2.17.2-3.22.64-1.06.79-1.1,1.72-.43.41,1.28-.08,2.48-.39,3.68-.07.28-.39.34-.68.22Z"/>
    <path class="st57" d="M49.9,25.29c1.4.31,2.43,1.21,3.39,2.2.33,1.37.25,1.53-.76,1.7-.53-.13-.58-.69-.89-1.02-.27-.3-.55-.58-.92-.74-.45-.37-.71-.94-1.31-1.14-.23-.08-.31-.33-.28-.58.06-.49.52-.27.77-.42Z"/>
    <path class="st24" d="M54.27,47.15c-.04,1.24-.26,2.45-.77,3.59-.46-.14-.97-.14-1.35-.49-.12-.18-.16-.37-.12-.58,0-.74.59-1.42.26-2.21.16-.57-.12-1.28.51-1.71.1-.04.2-.05.31-.04.73.21.76.98,1.17,1.44Z"/>
    <path class="st4" d="M38.04,52.16c-.39.27-1.12-.09-1.26.76.46.21,1.18,0,1.45.65-1.12-.24-2.28.04-3.4-.24-1.3-.27-1.39-.4-.97-1.51,1.26-.53,2.56-.27,3.85-.18.23.02.38.24.32.52Z"/>
    <path class="st58" d="M33.82,25.46c1.54-.13,3.08-.27,4.62-.4.57.59-.15.84-.33,1.23-.03.06-.06.14-.11.16-1.33.36-2.67.59-4.01.03-.34-.29-.3-.64-.17-1.01Z"/>
    <path class="st44" d="M43.07,24.87c1.21-.04,2.43-.17,3.5.56.16.11.25.31.5.22.4.09.5.36.45.73-.2.52-.64.53-1.08.48-1.06-.1-2.19.09-3.12-.66-.15-.43-.27-.88-.24-1.34Z"/>
    <path class="st55" d="M54.27,47.15c-.84,0-.9-.73-1.19-1.25-.43-.85-.34-1.83.23-2.36.18.07.37.14.55.2.53,0,.69.31.64.79-.01.88.09,1.77-.22,2.62Z"/>
    <path class="st25" d="M27.8,45.15c.05,0,.1,0,.15,0,.22.04.39.18.41.38.16,1.48.63,2.93.38,4.45-.05.09-.12.17-.21.24-.65.18-.71-.3-.76-.72-.03-.25.15-.58-.11-.74-.76-.48-.66-1.29-.85-2-.23-.58-.22-1.2-.22-1.81.06,0,.12,0,.18,0,.36-.05.66.21,1.02.2Z"/>
    <path class="st39" d="M47.29,26.45c-.07-.26-.15-.53-.22-.79.56-1.17,1.57-.37,2.37-.54.14-.03.31.11.46.17-.47.26-.72.52-.05.85.47.23.98.42,1.26.92-.08.21-.26.34-.46.3-1.14-.22-2.33-.24-3.35-.91Z"/>
    <path class="st48" d="M28.6,26.5c.49.34.75-.21,1.13-.3.76-.18,1.52-.37,2.28-.56.32-.08.72-.23.88.15.2.48-.38.62-.57.94-.91.52-1.89.85-2.92,1.04-1.2-.26-1.23-.31-.8-1.27Z"/>
    <path class="st11" d="M43.07,24.87c.42.05.92.02,1.03.56.1.48-.48.37-.64.63-.3.89-.93.65-1.53.44-.29-.1-.44-.39-.67-.58-.33-.41-.34-.76.2-1,.54-.02,1.07-.04,1.61-.05Z"/>
    <path class="st58" d="M54.68,38.93c-.61-.16-1.08.01-1.36.6-.68-.77-.69-2.01-.02-2.82.16.04.39.04.45.14.51.78.68.18.9-.2.1-.17.15-.36.22-.54-.07.94-.14,1.88-.21,2.82Z"/>
    <path class="st34" d="M41.46,24.92c-.16.27-.21.54.04.79.07.16.1.33-.04.46-.6.53-2.92.47-3.61-.09-.02-.47.68-.52.6-1.02,1-.29,2.02.12,3.02-.14Z"/>
    <path class="st18" d="M31.78,52.83c-.84-.59-1.79-.7-2.79-.62-.06-.47-.49-.91-.08-1.41.38-.33.81-.26,1.24-.15.8.19,1.63.31,2.33.8.05.09.08.18.09.29-.12.46-.59.68-.79,1.09Z"/>
    <path class="st7" d="M28.22,29.87c-.59-.68-1-.08-1.45.2.17-1.26.14-2.61,1.43-3.4.32.29.29.74.17,1.01-.27.59-.04.99.26,1.43.07.37-.11.6-.41.76Z"/>
    <path class="st24" d="M26.82,46.76c.46,1.17,1.45,2.1,1.53,3.43-.03.77-.09.81-1.02.62-.16-.1-.15-.26-.15-.42-.22-.59.47-1.27-.19-1.82-.15-.59-.36-1.18-.18-1.81Z"/>
    <path class="st18" d="M34.02,51.97c-.18.72.34,1.02.81,1.35-.93.22-1.73-.44-2.64-.38-.39-.42-.01-.73.15-1.08.03-.03.05-.07.08-.1.63-.69,1.26-.61,1.6.21Z"/>
    <path class="st15" d="M52.51,28.87c.37.19.53.02.59-.34.05-.35.12-.69.19-1.04.54.56.99,1.17,1.03,1.99-.39-.36-.89-.33-1.22-.06-.35.3-.06.73.12,1.08.16.32.75.6.09,1-.98-.21-1.41-1.61-.81-2.62Z"/>
    <path class="st25" d="M27.34,50.8c.39-.13.78-.25,1.02-.62.03-.02.06-.03.09-.05.56,0,.74.29.58.81.14.43.69.86-.03,1.27-.76-.22-1.18-.84-1.66-1.41Z"/>
    <path class="st28" d="M28.35,29.06c-.9-.09-.58-.73-.49-1.19.07-.4.41-.74.34-1.19.13-.06.27-.12.4-.18-.14.69.28.8.82.78.09.83-.31,1.5-1.07,1.79Z"/>
    <path class="st34" d="M51.69,52.15c.31-.38-.12-.76,0-1.14.04-.34.25-.48.57-.51.38.05.79.04,1.01.45-.26.75-.65,1.32-1.57,1.2Z"/>
    <path class="st13" d="M32.02,26.47c.15-.28.66-.29.59-.67-.04-.22-.4-.1-.6-.16.57-.45,1.25.33,1.81-.17.13.26.26.52.39.78.04.85-.68.6-1.11.74-.49.17-.91.07-1.08-.51Z"/>
    <path class="st12" d="M32.34,51.86c.14.39.17.76-.15,1.08-.16.03-.31.04-.42-.12-.06-.29-.55-.39-.4-.72.19-.41.62-.22.96-.25Z"/>
    <path class="st51" d="M53.27,50.95c-.35.04-.68.02-.98-.2-.15-.2-.17-.4.03-.59.58-.2.96.02,1.18.58-.08.07-.16.14-.23.21Z"/>
    <path class="st8" d="M54.49,44.53l-.64-.79c.08-.5.46-.43.81-.44.02.42.09.84-.17,1.22Z"/>
    <path class="st25" d="M27,48.56c1.01.51.33,1.19.19,1.82-.2-.59-.16-1.21-.19-1.82Z"/>
    <path class="st36" d="M52.32,50.17c-.01.2-.02.39-.03.59l-.6.25c-1.65.79-3.36,1.23-5.21.99-2.81-.07-5.62.02-8.43.17-.83-.31-1.7-.07-2.55-.14-.48-.04-.98,0-1.47-.04-.52-.19-1.05-.28-1.6-.21-1.12-.33-2.24-.67-3.4-.83-.39-.12-.37-.55-.58-.81-.15-1.66-.49-3.31-.49-4.99.09-1.42-.28-2.85.04-4.28.05-.23.01-.53-.2-.74-.13-.95-.28-1.91.18-2.82-.02-.95-.03-1.91-.08-2.86-.02-.35-.06-.74-.47-.9.76-.84.4-1.96.71-2.91.08-.24.06-.51.08-.77.04-.27.09-.54.13-.81.07-.76.64-1.24,1.07-1.79.92-.11,1.68-.73,2.6-.8.76.17,1.47-.01,2.19-.23.76-.02,1.52-.08,2.27-.03.47.03.92,0,1.37-.12.29.18.5.02.68-.19.21-.25.65-.34.76-.21.76.87,1.48.07,2.22.03.59.45,1.19.85,1.96.36,1.28.13,2.55.25,3.83.38.56-.23.99-.58,1.69.07.42.39,1.41.31,2.12.55.87.29,1.14,1.05,1.41,1.81.37.84.14,1.87.81,2.62-.21,1.74.17,3.48,0,5.22,0,.94.01,1.88.02,2.82-.05,1.14.16,2.29-.21,3.41-.16.98.11,2-.22,2.97-.01.52.22,1.07-.17,1.54-.11.77-.06,1.55-.23,2.31-.06.13-.12.27-.18.4Z"/>
    <path class="st9" d="M27.98,37.31c-.19.93.25,1.9-.18,2.82-1.04-.43-.26-1.29-.44-1.92-.14-.51-.24-1.05.62-.9Z"/>
    <path class="st43" d="M27.8,45.15c-.42.34-.86.79-1.02-.2.04-.12.08-.25.11-.37.07-.31.23-.62.55-.59.47.04.22.44.25.7.02.16.07.31.11.47Z"/>
    <path class="st45" d="M52.9,45.91c.09-.99-.21-2.01.22-2.97.06.2.13.4.19.6-.08.79-.15,1.58-.23,2.36l-.09.02h-.09Z"/>
    <path class="st45" d="M52.5,49.77c.03-.77-.28-1.58.23-2.31.14.79.16,1.57-.23,2.31Z"/>
    <path class="st3" d="M46.29,46.16c-.48.76-1.37.96-2.08,1.3-1.38.66-2.92.81-4.47.61-1.42-.18-2.86-.24-3.97-1.39-.3-.31-.97-.15-1.16-.72-.23-.46.07-.61.43-.72,1.06.01,1.95.61,2.9.96,2,.73,3.85.36,5.72-.38.48-.19.9-.62,1.49-.44.5.08,1.1.01,1.13.77Z"/>
    <path class="st43" d="M38.44,29.89c3.1-.31,5.86.35,8.14,2.66.62.62,1.23,1.22,1.7,1.95.19.56.54,1.16-.33,1.48-.51.11-.78-.17-1.03-.58-1.82-2.99-4.46-4.34-7.95-3.96-.57.06-.95-.2-1.22-.66,0-.48.28-.74.7-.89Z"/>
    <path class="st32" d="M31,38.3c-.36-.77-.03-1.53.21-2.19.66-1.8,1.65-3.42,3.39-4.44.83-.29,1.07.11,1.03.86-.09.52-.58.65-.9.93-.36.16-.73.26-1.06.52-.57.47-.92.95-.54,1.71.09.18.08.39.02.59-.21.52-.23,1.1-.45,1.62-.16.59-.89.66-1.13,1.19-.06.14-.3.14-.44.01-.25-.23-.27-.51-.12-.8Z"/>
    <path class="st42" d="M50.31,32.72c-.56.51-1.21.69-1.85.27-.9-.58-1.9-1.05-1.67-2.54.14-.9.78-1.42,1.05-2.18.08-.24.39-.21.61-.04.47.09.56.41.49.82-.06.19-.16.36-.22.55-.25.86-.12,1.08.75,1.33.16.05.31.1.46.18.42.47.55,1,.38,1.61Z"/>
    <path class="st48" d="M35.21,45.55c-.28.01-.49.14-.59.41-1.61-1.12-2.69-2.62-3.24-4.5-.11-.38-.26-.75-.39-1.13.03-.04.06-.08.1-.11.42-.11.83-.39,1.26-.04.29.28.49.64.6,1.01.36,1.17,1.1,2.09,1.88,3,.32.37.84.75.37,1.36Z"/>
    <path class="st56" d="M46.29,46.16c-.38-.27-.81-.42-1.27-.44-.27-.38-.14-.69.19-.95.34-.26.64-.58,1-.82.38-.16.88.02,1.18-.33.38-.45.42-.96.06-1.46.03-.69.08-1.37.74-1.81,1.06.13,1.22.36,1.12,1.59-.02.16,0,.34-.22.39-.61.25-.18.84-.39,1.22-.64,1.02-1.31,2.01-2.4,2.61Z"/>
    <path class="st24" d="M48.48,29.1c.04-.29.1-.58-.03-.86.09-.54.54-.37.77-.28.83.33,1.66.71,1.91,1.7.1,1.36,0,1.42-1.36.77-.51-.36-1.22-.54-1.29-1.33Z"/>
    <path class="st23" d="M49.93,30.07c.51.17,1.17.79,1.2-.42.62,1.54.42,2.32-.82,3.07-.28-.44-.51-.91-.62-1.43-.37-.49-.34-.91.24-1.23Z"/>
    <path class="st52" d="M47.82,35.75c.54-.27.36-.81.46-1.25.91,1.1,1.12,2.47,1.43,3.8-.04.03-.07.06-.11.09-.62-.12-1.05-.66-1.68-.77-.4-.6-.73-1.21-.1-1.87Z"/>
    <path class="st6" d="M49.31,41.94c-.35-.45-.39-1.11-.98-1.39-.54-.4-.42-.81,0-1.21.51-.14,1.02-.32,1.53-.02-.29.85.02,1.83-.56,2.62Z"/>
    <path class="st48" d="M31,38.3c.03.16.07.32.14.69.25-.66.85-.77,1.06-1.27.65.44.48.99.21,1.55-.42.37-.71.9-1.31,1.02-.04.02-.07.04-.11.05-.06-.68-.28-1.36,0-2.04Z"/>
    <path class="st52" d="M49.86,39.31c-.46.2-.93.36-1.44.25-.72-.45-.84-.97-.39-1.81.35-.21.59-.08.83.21.19.23.38.52.76.41.03-.02.06-.04.1-.06.25.31.17.67.14,1.02Z"/>
    <path class="st47" d="M38.44,29.89c-.27.23-.47.51-.6.84-.15.96-.58,1.26-1.69,1.18-.3-.2-.5-.44-.32-.82l2.61-1.19Z"/>
    <path class="st26" d="M35.83,31.08c.14.21.27.42.41.64.08.8-.31,1-1.01.78.12-.53-.08-.81-.64-.83.37-.28.64-.78,1.23-.59Z"/>
    <path class="st20" d="M48.69,43.55c-.11-.48-.79-1.15.39-1.22.04.46-.09.87-.39,1.22Z"/>
    <path class="st45" d="M35.23,32.5c.34-.26.67-.52,1.01-.78.45-.47,1.23-.4,1.6-.99,1.1.38,2.24,0,3.36.16,2.92.4,4.95,1.98,6.3,4.52.08.15.14.29.32.33.06.61.24,1.2.46,1.77.06.04.08.09.06.13-.02.05-.04.07-.06.07-.13.63-.12,1.24.13,1.84-.03.33-.06.66-.09.98-.35.46-.18,1.09-.49,1.56.04,1.06-.5,1.75-1.41,2.2-.3.65-1.14.74-1.41,1.41-1.29.84-2.76,1.13-4.23,1.41-1.37.27-2.6-.3-3.81-.74-.6-.22-1.28-.35-1.76-.84-.31-.84-1.04-1.38-1.61-1.98-.49-.52-.58-1.16-.95-1.69-.19-.27-.16-.65-.55-.86-.38-.2-.12-.49.08-.71-.3-.29-.43-.61-.16-1,.06-.54.12-1.07.18-1.61.14-.53.29-1.06.43-1.59.04-1.33.77-2.27,1.76-3.06.28-.19.56-.38.84-.56Z"/>
    <path class="st16" d="M34.39,33.06c-.6,1.01-1.44,1.89-1.76,3.06,0-1.67.57-2.66,1.76-3.06Z"/>
    <path class="st29" d="M49.93,30.07c-.08.41-.16.82-.24,1.23-.42.04-.81.78-1.26.1-.37-.54-.74-1.11-.19-1.78.12-.14.16-.35.24-.53.38.47,1.28.18,1.44.97Z"/>
    <path class="st32" d="M32.02,39.32c.2.31.24.64.16,1-.36-.01-.73.25-1.07-.04.17-.45.31-.93.92-.96Z"/>
    <path class="st9" d="M46.43,44.3c.51-.71,1.06-1.39,1.41-2.2.51,1.47.26,1.85-1.41,2.2Z"/>
    <path class="st37" d="M48.29,37.72c0-.07,0-.13,0-.2.93-.48.9.56,1.34.85,0,.6-.33.59-.66.29-.28-.25-.45-.62-.67-.93Z"/>
    <path class="st2" d="M40.26,33.33c2.3-.44,3.77.94,5,2.51,1.14,1.45,1.51,3.2,1,5.05-.21.78-.67,1.44-1.13,2.09-.9.66-1.08.62-1.57-.36-.21-.41-.08-.76.15-1.12,1.44-2.24.49-6.03-2.35-6.77-.52-.13-1.1-.36-1.28-1.01,0-.16.06-.29.17-.39Z"/>
    <path class="st46" d="M43.86,44.13c-1.01.73-2.17.88-3.37.82-1.99-.1-3.6-.9-4.73-2.59.15-.5-.26-1.1.26-1.54.41-.11.61.16.81.44,1.33,1.84,2.91,2.39,5.07,1.77.38-.11.75-.29,1.17-.2.8.11.99.59.79,1.3Z"/>
    <path class="st54" d="M40.26,33.33c0,.11,0,.22,0,.32.23.5-.15.68-.48.8-1.53.54-2.79,1.37-3.4,2.97-.08.22-.3.35-.55.38-1.19-.07-1.3-.3-.82-1.72.03-.95.8-1.42,1.41-1.9,1.11-.88,2.44-1.14,3.85-.86Z"/>
    <path class="st55" d="M35,36.09c.26.19.58.3.73.64-.13.39-.65-.35-.7.22-.04.46.38.45.65.58.61.54.36,1.25.37,1.91-.24.56-.5,1.09-1.27.92-.56-1.23-.55-2.49-.24-3.78.06-.24.27-.35.45-.49Z"/>
    <path class="st19" d="M43.86,44.13c-.38-.26-.38-.82-.83-1.02-.2-.77.17-.93.84-.78.15.75.61.89,1.27.65-.32.5-.7.94-1.27,1.15Z"/>
    <path class="st55" d="M36.04,40.9c.06.33.12.66.2.98.1.44-.1.54-.48.48-.63-.17-1.12-.43-.77-1.22.11-.45.37-.68.85-.58.14.07.23.17.2.34Z"/>
    <path class="st46" d="M35.85,40.72c-.31.1-.3.83-.86.42-.39-.18-.11-.53-.21-.79.44-.21.61-.62.77-1.03.66.35.83.8.3,1.4Z"/>
    <path class="st38" d="M35.85,40.72c-.1-.47-.2-.94-.3-1.4l.13-1.8c.41-.37.42-.94.73-1.39.77-1.08,1.84-1.68,3.03-2.1.29-.1.56-.2.8-.38,1.17.56,2.41.94,3.37,1.91,1.47,1.49,1.73,4.62.42,6.32-.09.12-.12.3-.18.45-.25.29-.7.36-.84.78-1.27.52-2.51.98-3.95.5-1.43-.48-2.45-1.32-3.03-2.71-.07-.06-.13-.12-.2-.18Z"/>
  </g>
</svg>