<?xml version="1.0" encoding="UTF-8"?>
<svg id="Layer_1" xmlns="http://www.w3.org/2000/svg" version="1.1" viewBox="0 0 80.16 78.55">
  <!-- Generator: Adobe Illustrator 29.0.1, SVG Export Plug-In . SVG Version: 2.1.0 Build 192)  -->
  <defs>
    <style>
      .st0 {
        fill: #f7a01d;
      }

      .st1 {
        fill: #202121;
      }

      .st2 {
        fill: #e91e25;
      }

      .st3 {
        fill: #fff;
      }

      .st4 {
        fill: #e3b79f;
      }

      .st5 {
        opacity: .15;
      }

      .st6 {
        fill: #f26122;
      }
    </style>
  </defs>
  <path class="st4" d="M74.14,61.03c0,2.22-1.8,4.03-4.03,4.03H10.05c-2.22,0-4.03-1.8-4.03-4.03V22.1c0-2.22,1.8-4.03,4.03-4.03h60.06c2.22,0,4.03,1.8,4.03,4.03v38.92h0,0Z"/>
  <rect class="st4" x="6.02" y="27.21" width="68.12" height="9.58"/>
  <rect class="st3" x="6.02" y="36.8" width="68.12" height="5.93"/>
  <g class="st5">
    <path class="st1" d="M8.88,61.03V22.1c0-2.22,1.8-4.03,4.03-4.03h-2.86c-2.22,0-4.03,1.8-4.03,4.03v38.92c0,2.22,1.8,4.03,4.03,4.03h2.86c-2.22,0-4.03-1.8-4.03-4.03Z"/>
  </g>
  <path class="st2" d="M55.91,53.83c0-2,.92-3.78,2.36-4.95-1.09-.89-2.49-1.42-4.01-1.42-3.52,0-6.37,2.85-6.37,6.37s2.85,6.37,6.37,6.37c1.52,0,2.91-.53,4.01-1.42-1.44-1.17-2.36-2.95-2.36-4.95Z"/>
  <path class="st0" d="M62.27,47.46c-1.52,0-2.91.53-4.01,1.42,1.44,1.17,2.36,2.95,2.36,4.95s-.92,3.78-2.36,4.95c1.09.89,2.49,1.42,4.01,1.42,3.52,0,6.37-2.85,6.37-6.37s-2.85-6.37-6.37-6.37Z"/>
  <path class="st6" d="M60.63,53.83c0-2-.92-3.78-2.36-4.95-1.44,1.17-2.36,2.95-2.36,4.95s.92,3.78,2.36,4.95c1.44-1.17,2.36-2.95,2.36-4.95Z"/>
  <g>
    <path class="st1" d="M54.26,61.31c-4.12,0-7.48-3.35-7.48-7.48s3.35-7.48,7.48-7.48c1.71,0,3.38.59,4.71,1.67.26.21.41.53.41.86s-.15.65-.41.86c-1.24,1-1.95,2.49-1.95,4.09s.71,3.08,1.95,4.09c.26.21.41.53.41.86s-.15.65-.41.86c-1.33,1.08-3,1.67-4.71,1.67ZM54.26,48.57c-2.9,0-5.26,2.36-5.26,5.26s2.36,5.26,5.26,5.26c.79,0,1.55-.17,2.24-.5-1.1-1.33-1.71-3-1.71-4.76s.61-3.43,1.71-4.76c-.69-.33-1.45-.5-2.24-.5Z"/>
    <path class="st1" d="M62.27,61.31c-1.71,0-3.38-.59-4.71-1.67-.26-.21-.41-.53-.41-.86s.15-.65.41-.86c1.24-1,1.95-2.49,1.95-4.09s-.71-3.08-1.95-4.09c-.26-.21-.41-.53-.41-.86s.15-.65.41-.86c1.33-1.08,3-1.67,4.71-1.67,4.12,0,7.48,3.35,7.48,7.48,0,4.12-3.35,7.48-7.48,7.48ZM60.03,58.59c.69.33,1.45.5,2.24.5,2.9,0,5.26-2.36,5.26-5.26s-2.36-5.26-5.26-5.26c-.79,0-1.55.17-2.24.5,1.1,1.33,1.71,3,1.71,4.76s-.61,3.43-1.71,4.76Z"/>
    <path class="st1" d="M58.27,59.89c-.25,0-.5-.08-.7-.25-1.76-1.43-2.77-3.55-2.77-5.81s1.01-4.38,2.77-5.81c.41-.33.99-.33,1.4,0,1.76,1.43,2.77,3.55,2.77,5.81s-1.01,4.38-2.77,5.81c-.2.17-.45.25-.7.25ZM58.27,50.43c-.8.94-1.25,2.14-1.25,3.4s.45,2.46,1.25,3.4c.8-.94,1.25-2.14,1.25-3.4,0-1.26-.45-2.46-1.25-3.4Z"/>
    <path class="st1" d="M74.14,24.72c.61,0,1.11-.5,1.11-1.11v-1.51c0-2.83-2.3-5.14-5.14-5.14H10.05c-2.83,0-5.14,2.3-5.14,5.14v38.92c0,2.83,2.3,5.14,5.14,5.14h60.06c2.83,0,5.14-2.3,5.14-5.14V27.21c0-.61-.5-1.11-1.11-1.11H7.13v-4c0-1.61,1.31-2.92,2.92-2.92h60.06c1.61,0,2.92,1.31,2.92,2.92v1.51c0,.61.5,1.11,1.11,1.11ZM73.03,41.61H7.13v-3.71h65.9v3.71h0ZM70.11,63.94H10.05c-1.61,0-2.92-1.31-2.92-2.92v-17.19h65.9v17.19c0,1.61-1.31,2.92-2.92,2.92ZM73.03,28.32v7.36H7.13v-7.36h65.9Z"/>
    <path class="st1" d="M27.32,50.44h-13.92c-.61,0-1.11-.5-1.11-1.11s.5-1.11,1.11-1.11h13.92c.61,0,1.11.5,1.11,1.11s-.5,1.11-1.11,1.11Z"/>
    <path class="st1" d="M27.32,55.06h-13.92c-.61,0-1.11-.5-1.11-1.11s.5-1.11,1.11-1.11h13.92c.61,0,1.11.5,1.11,1.11s-.5,1.11-1.11,1.11Z"/>
    <path class="st1" d="M27.32,59.67h-13.92c-.61,0-1.11-.5-1.11-1.11s.5-1.11,1.11-1.11h13.92c.61,0,1.11.5,1.11,1.11s-.5,1.11-1.11,1.11Z"/>
  </g>
</svg>