<?xml version="1.0" encoding="UTF-8"?>
<svg id="Layer_1" xmlns="http://www.w3.org/2000/svg" version="1.1" viewBox="0 0 80.16 78.55">
  <!-- Generator: Adobe Illustrator 29.0.1, SVG Export Plug-In . SVG Version: 2.1.0 Build 192)  -->
  <defs>
    <style>
      .st0 {
        fill: #179bd7;
      }

      .st1 {
        fill: #253b80;
      }

      .st2 {
        fill: #fff;
      }
    </style>
  </defs>
  <g id="paypal">
    <path id="Shape" class="st2" d="M76.46,15.28H3.7c-3.29,0-5.97,2.62-5.97,5.84v41.52c0,3.22,2.68,5.84,5.97,5.84h72.76c3.29,0,5.97-2.62,5.97-5.84V21.12c0-3.22-2.68-5.84-5.97-5.84Z"/>
    <g id="Group">
      <path id="Shape1" data-name="Shape" class="st1" d="M16.17,33.18c-.91-.62-2.09-.94-3.55-.94h-5.65c-.45,0-.69.22-.74.67l-2.29,14.4c-.02.14.01.27.11.39.09.12.21.18.35.18h2.68c.47,0,.73-.22.78-.67l.64-3.88c.02-.19.11-.34.25-.46.14-.12.32-.19.53-.23.21-.03.41-.05.6-.05s.41.01.67.04c.26.02.42.03.49.03,2.02,0,3.61-.57,4.77-1.71,1.15-1.14,1.73-2.72,1.73-4.75,0-1.39-.45-2.39-1.36-3.02ZM13.26,37.5c-.12.82-.42,1.36-.92,1.62-.49.26-1.2.39-2.12.39l-1.16.04.6-3.78c.05-.26.2-.39.46-.39h.67c.94,0,1.62.14,2.05.41.42.27.56.84.42,1.71Z"/>
      <path id="Shape2" data-name="Shape" class="st0" d="M75.77,32.24h-2.61c-.26,0-.41.13-.46.39l-2.29,14.68-.04.07c0,.12.05.23.14.34.09.11.21.16.35.16h2.33c.45,0,.69-.22.74-.67l2.29-14.44v-.04c0-.33-.15-.49-.46-.49Z"/>
      <path id="Shape3" data-name="Shape" class="st1" d="M44.21,37.93c0-.12-.05-.23-.14-.34-.09-.11-.2-.16-.32-.16h-2.72c-.26,0-.47.12-.64.35l-3.74,5.51-1.55-5.3c-.12-.38-.38-.56-.78-.56h-2.65c-.12,0-.22.05-.32.16-.09.11-.14.22-.14.34,0,.05.23.74.69,2.08.46,1.34.95,2.79,1.48,4.34.53,1.55.81,2.38.83,2.47-1.93,2.64-2.89,4.05-2.89,4.24,0,.31.15.46.46.46h2.72c.26,0,.47-.12.64-.35l9-12.99s.07-.13.07-.25Z"/>
      <path id="Shape4" data-name="Shape" class="st0" d="M69.52,37.43h-2.68c-.33,0-.53.39-.6,1.16-.61-.94-1.73-1.41-3.35-1.41s-3.14.64-4.32,1.91c-1.19,1.27-1.78,2.77-1.78,4.48,0,1.39.41,2.49,1.22,3.32.81.82,1.9,1.24,3.27,1.24.68,0,1.38-.14,2.08-.42.71-.28,1.26-.66,1.66-1.13,0,.02-.02.13-.07.32-.05.19-.07.33-.07.42,0,.38.15.56.46.56h2.44c.45,0,.71-.22.78-.67l1.45-9.21c.02-.14-.01-.27-.11-.39-.09-.12-.21-.18-.35-.18ZM64.92,44.39c-.6.59-1.32.88-2.17.88-.68,0-1.24-.19-1.66-.56-.42-.38-.64-.89-.64-1.55,0-.87.29-1.61.88-2.21.59-.6,1.32-.9,2.19-.9.66,0,1.21.19,1.64.58.44.39.65.92.65,1.61,0,.85-.3,1.57-.9,2.15Z"/>
      <path id="Shape5" data-name="Shape" class="st1" d="M29.42,37.43h-2.68c-.33,0-.53.39-.6,1.16-.64-.94-1.75-1.41-3.35-1.41-1.69,0-3.14.64-4.32,1.91-1.19,1.27-1.78,2.77-1.78,4.48,0,1.39.41,2.49,1.22,3.32.81.82,1.9,1.24,3.27,1.24.66,0,1.34-.14,2.05-.42.71-.28,1.27-.66,1.69-1.13-.09.28-.14.53-.14.74,0,.38.15.56.46.56h2.44c.45,0,.71-.22.78-.67l1.45-9.21c.02-.14-.01-.27-.11-.39-.09-.12-.21-.18-.35-.18ZM24.82,44.4c-.6.58-1.34.86-2.21.86-.68,0-1.23-.19-1.64-.56-.41-.38-.62-.89-.62-1.55,0-.87.29-1.61.88-2.21.59-.6,1.32-.9,2.19-.9.66,0,1.21.19,1.64.58.44.39.65.92.65,1.61,0,.87-.3,1.59-.9,2.17Z"/>
      <path id="Shape6" data-name="Shape" class="st0" d="M56.27,33.18c-.91-.62-2.09-.94-3.55-.94h-5.61c-.47,0-.73.22-.78.67l-2.29,14.4c-.02.14.01.27.11.39.09.12.21.18.35.18h2.89c.28,0,.47-.15.56-.46l.64-4.09c.02-.19.11-.34.25-.46.14-.12.32-.19.53-.23.21-.03.41-.05.6-.05s.41.01.67.04c.26.02.42.03.49.03,2.02,0,3.61-.57,4.77-1.71,1.15-1.14,1.73-2.72,1.73-4.75,0-1.39-.45-2.39-1.36-3.02ZM52.65,38.98c-.52.35-1.29.53-2.33.53l-1.13.04.6-3.78c.05-.26.2-.39.46-.39h.64c.52,0,.93.02,1.24.07.31.05.6.19.88.44.28.25.42.61.42,1.08,0,.99-.26,1.66-.78,2.01Z"/>
    </g>
  </g>
</svg>