<?xml version="1.0" encoding="UTF-8"?>
<svg id="Layer_1" xmlns="http://www.w3.org/2000/svg" version="1.1" viewBox="0 0 80.16 78.55">
  <!-- Generator: Adobe Illustrator 29.0.1, SVG Export Plug-In . SVG Version: 2.1.0 Build 192)  -->
  <defs>
    <style>
      .st0 {
        fill: #e3b79f;
      }
    </style>
  </defs>
  <path class="st0" d="M38.97,30.53l-4.68,21.87h-5.66l4.68-21.87h5.65ZM62.78,44.65l2.98-8.21,1.72,8.21h-4.69ZM69.09,52.4h5.23l-4.57-21.87h-4.85c-1.07,0-1.99.66-2.38,1.59v.02s-8.49,20.27-8.49,20.27h5.94l1.18-3.27h7.26l.68,3.27ZM54.32,45.26c.02-5.77-7.98-6.09-7.93-8.67.02-.78.76-1.62,2.4-1.83.3-.03.65-.05,1.01-.05,1.66,0,3.23.38,4.63,1.06l-.06-.03.99-4.64c-1.57-.61-3.39-.96-5.29-.97h0c-5.59,0-9.53,2.98-9.56,7.23-.04,3.15,2.81,4.9,4.95,5.95,2.21,1.07,2.95,1.76,2.93,2.72-.01,1.47-1.76,2.12-3.39,2.14-.07,0-.17,0-.25,0-2.03,0-3.95-.51-5.62-1.41l.06.03-1.02,4.79c1.84.74,3.96,1.16,6.19,1.16h.11,0c5.94,0,9.83-2.93,9.85-7.48h0ZM30.89,30.53l-9.17,21.87h-5.98l-4.51-17.46c-.09-.85-.61-1.56-1.33-1.91h-.01c-1.61-.8-3.47-1.44-5.43-1.84l-.15-.03.14-.63h9.63c1.31,0,2.4.96,2.6,2.21h0s2.38,12.67,2.38,12.67l5.89-14.89h5.94Z"/>
</svg>